<svg width="45" height="45" viewBox="0 0 45 45" fill="none" xmlns="http://www.w3.org/2000/svg">
<path d="M22.5008 31.6114C27.5326 31.6114 31.6119 27.5321 31.6119 22.5003C31.6119 17.4683 27.5326 13.3892 22.5008 13.3892C17.4688 13.3892 13.3896 17.4683 13.3896 22.5003C13.3896 27.5321 17.4688 31.6114 22.5008 31.6114Z" stroke="#2F2F2F" stroke-width="4" stroke-linecap="round" stroke-linejoin="round"/>
<path d="M2 31.6111V13.3889C2 7.09899 7.09899 2 13.3889 2H31.6111C37.901 2 43 7.09899 43 13.3889V31.6111C43 37.901 37.901 43 31.6111 43H13.3889C7.09899 43 2 37.901 2 31.6111Z" stroke="#2F2F2F" stroke-width="4"/>
<path d="M35.0273 9.99586L35.0509 9.96973" stroke="#2F2F2F" stroke-width="4" stroke-linecap="round" stroke-linejoin="round"/>
</svg>
