<svg width="41" height="41" viewBox="0 0 41 41" fill="none" xmlns="http://www.w3.org/2000/svg">
<path d="M29.889 24.5705C29.3752 24.3104 26.8729 23.0894 26.4053 22.9152C25.9376 22.7486 25.5981 22.6615 25.2573 23.1752C24.9242 23.6762 23.9427 24.8229 23.6429 25.1573C23.3431 25.4918 23.0484 25.5174 22.5423 25.2906C22.0285 25.0305 20.3872 24.4962 18.4385 22.7486C16.9163 21.3943 15.9029 19.7261 15.6018 19.2123C15.302 18.705 15.5685 18.418 15.8222 18.1643C16.0553 17.9311 16.3359 17.5775 16.596 17.27C16.8433 16.9625 16.9227 16.7562 17.1034 16.4231C17.27 16.063 17.1841 15.7824 17.0573 15.5287C16.9304 15.2751 15.9093 12.76 15.4826 11.758C15.0752 10.7638 14.6485 10.8906 14.3346 10.8906C14.0412 10.8637 13.7004 10.8637 13.3609 10.8637C13.0213 10.8637 12.4666 10.9906 11.9989 11.4774C11.5312 11.9912 10.2103 13.2187 10.2103 15.7017C10.2103 18.1912 12.0386 20.5999 12.2923 20.96C12.5524 21.2931 15.8888 26.4181 21.0074 28.6206C22.2284 29.1343 23.1765 29.4418 23.9171 29.6955C25.1381 30.0825 26.2528 30.0287 27.133 29.9018C28.1068 29.7417 30.1491 28.6667 30.577 27.4662C31.0114 26.2579 31.0114 25.2573 30.8845 25.0305C30.7577 24.7973 30.4246 24.6705 29.9108 24.4437L29.889 24.5705ZM20.6063 37.1562H20.5794C17.5493 37.1562 14.5537 36.335 11.9374 34.8L11.3237 34.4336L4.91744 36.1018L6.63944 29.8685L6.22559 29.2279C4.53691 26.5385 3.63619 23.4353 3.63619 20.2463C3.63619 10.9444 11.2507 3.35687 20.6192 3.35687C25.1573 3.35687 29.4149 5.125 32.6181 8.32812C35.8212 11.5043 37.5893 15.7619 37.5893 20.2732C37.5765 29.5687 29.9684 37.1562 20.6127 37.1562H20.6063ZM35.0537 5.89247C31.1562 2.12816 26.0312 0 20.5794 0C9.33519 0 0.179375 9.11609 0.172969 20.3193C0.172969 23.8966 1.107 27.3867 2.89562 30.4758L0 41L10.824 38.1774C13.8068 39.7854 17.1636 40.6464 20.5807 40.6528H20.5871C31.8378 40.6528 40.9936 31.5367 41 20.3258C41 14.9009 38.8847 9.79516 35.0281 5.95781L35.0537 5.89247Z" fill="#2F2F2F"/>
</svg>
