<svg width="32" height="31" viewBox="0 0 32 31" fill="none" xmlns="http://www.w3.org/2000/svg">
<g clip-path="url(#clip0_327_1969)">
<path d="M29.2175 14.0105V15.3044C29.2157 18.3046 28.2442 21.2239 26.4478 23.6269C24.6514 26.0299 22.1264 27.7878 19.2492 28.6385C16.3721 29.4892 13.2971 29.387 10.4828 28.3473C7.66848 27.3075 5.26566 25.3859 3.63269 22.869C1.99973 20.3521 1.22411 17.3747 1.42152 14.381C1.61892 11.3872 2.77878 8.53752 4.72809 6.25682C6.67741 3.97612 9.31175 2.38664 12.2382 1.72544C15.1647 1.06424 18.2265 1.36675 20.967 2.58785" stroke="#F2A654" stroke-width="2" stroke-linecap="round" stroke-linejoin="round"/>
<path d="M30.6088 2.78265L15.3044 18.087L11.1305 13.9131" stroke="#F2A654" stroke-width="2" stroke-linecap="round" stroke-linejoin="round"/>
</g>
<defs>
<clipPath id="clip0_327_1969">
<rect width="32" height="30.6087" fill="white"/>
</clipPath>
</defs>
</svg>
