<svg width="34" height="34" viewBox="0 0 34 34" fill="none" xmlns="http://www.w3.org/2000/svg">
<path d="M5.59117 13.2377L5.59116 13.2377C3.42467 16.9902 1.86648 21.1074 1.22348 24.5619L1.32172 24.5802L1.22348 24.5619C0.902095 26.2886 0.804508 27.8544 1.00194 29.1577C1.19912 30.4593 1.71402 31.5705 2.70817 32.1445L2.75817 32.0579L2.70817 32.1445C3.70731 32.7213 4.87891 32.5196 5.93131 31.9054L5.8809 31.819L5.93131 31.9054C6.98167 31.2924 8.03021 30.2714 9.10592 28.9882C10.8592 26.8967 12.6828 24.0633 14.4538 21.0896C14.4902 21.1601 14.522 21.2298 14.5476 21.2957C14.592 21.4099 14.6144 21.5049 14.6144 21.5711V31.2853C14.6144 32.2804 15.4337 33.0996 16.4287 33.0996H29.0001C29.9951 33.0996 30.8144 32.2804 30.8144 31.2853V21.5711C30.8144 21.5108 30.8322 21.426 30.8682 21.3243C30.9037 21.2242 30.9547 21.1138 31.0157 21.0042C31.139 20.7827 31.2963 20.577 31.4364 20.4681C32.4541 19.6772 33.0998 18.6746 33.1 17.5711C33.1 15.9201 31.7396 14.6103 29.8719 13.7307C27.9971 12.8477 25.4839 12.327 22.7144 12.3283C21.4544 12.3289 20.2498 12.4387 19.1328 12.6395C19.8661 11.1536 20.5087 9.722 20.9881 8.40677L20.8942 8.37252L20.9881 8.40677C21.5615 6.8336 21.9215 5.4162 21.9272 4.20005C21.9329 2.98167 21.5215 1.86649 20.5227 1.28957C19.4505 0.657127 18.1245 0.893159 17.0843 1.30438C15.8569 1.78505 14.5491 2.65303 13.2144 3.79461L13.2794 3.8706L13.2144 3.79461C10.5443 6.07864 7.75789 9.48547 5.59117 13.2377ZM19.8488 2.45037L19.8488 2.4504L19.851 2.45167C20.1061 2.59896 20.2881 2.79774 20.4075 3.07408C20.5281 3.35321 20.5867 3.71633 20.5845 4.19385C20.58 5.14602 20.2731 6.4479 19.7267 7.94691C19.1685 9.47841 18.3485 11.223 17.4121 13.0456C16.7459 13.2405 16.1202 13.4682 15.5572 13.7333L15.5998 13.8238L15.5572 13.7333C13.6897 14.6126 12.329 15.9218 12.329 17.5715C12.3292 18.4882 12.7776 19.3343 13.5113 20.0475C11.686 23.1288 9.81171 26.057 8.07683 28.1265C7.05191 29.3491 6.07729 30.2649 5.2549 30.745C4.84246 30.9857 4.49877 31.1166 4.19686 31.1518C3.898 31.1867 3.63498 31.1286 3.37989 30.9813C2.87231 30.6883 2.49449 30.0391 2.33054 28.957C2.16704 27.8776 2.24066 26.4384 2.54426 24.8072C2.83639 23.2377 3.34042 21.4938 4.01564 19.7023L6.44387 21.1043L6.49387 21.0177L6.44387 21.1044C7.30567 21.6019 8.4245 21.3011 8.92195 20.4394C9.41946 19.5777 9.11988 18.4588 8.25815 17.9613L5.46495 16.3482C5.76852 15.7251 6.09173 15.1074 6.43034 14.4967L9.30099 16.1545L9.301 16.1545C10.1627 16.6521 11.2816 16.3525 11.7791 15.4907C12.2766 14.6289 11.977 13.5101 11.1153 13.0126L11.1153 13.0126L8.33362 11.4068C8.73222 10.8234 9.14373 10.2573 9.56346 9.70737L12.1581 11.2058L12.1581 11.2058C13.0198 11.7034 14.1387 11.4038 14.6362 10.542C15.1337 9.68022 14.8341 8.56141 13.9724 8.06385L11.9396 6.89012C12.6595 6.1217 13.3809 5.41841 14.0867 4.81463C15.3476 3.7361 16.5573 2.95302 17.5738 2.55496L17.5738 2.55499L17.5759 2.55408C17.9835 2.3834 18.4147 2.27153 18.8142 2.2462C19.2145 2.22081 19.5749 2.28275 19.8488 2.45037ZM12.8294 10.044L10.4001 8.64193C10.605 8.39235 10.8113 8.14875 11.0185 7.90921L13.3008 9.22729L13.3008 9.22729C13.5356 9.36286 13.6086 9.63585 13.4729 9.8708C13.3372 10.1059 13.0641 10.1795 12.8294 10.044L12.8294 10.044ZM10.6158 14.8194L10.7024 14.8694L10.6158 14.8194C10.4801 15.0545 10.207 15.1281 9.97233 14.9926L9.92233 15.0792L9.97233 14.9926L7.10049 13.3347C7.26233 13.064 7.42414 12.7948 7.59155 12.5297L10.4437 14.1759C10.6785 14.3115 10.7515 14.5844 10.6158 14.8194ZM7.75883 19.7681L7.84543 19.8181L7.75883 19.7681C7.62309 20.0032 7.34997 20.0768 7.11532 19.9413L7.06532 20.0279L7.11531 19.9413L4.5196 18.4429C4.64094 18.1526 4.76714 17.8627 4.89706 17.5717L7.58673 19.1246C7.82152 19.2602 7.89449 19.5332 7.75883 19.7681ZM22.7145 13.6715C25.3157 13.6703 27.6593 14.1732 29.2992 14.9454C30.1191 15.3315 30.7359 15.7699 31.1466 16.2223C31.5572 16.6747 31.7574 17.136 31.7574 17.5714C31.7573 18.1455 31.4225 18.7788 30.6119 19.4088C29.9861 19.8952 29.4718 20.6744 29.4718 21.5714V31.2857C29.4718 31.5569 29.2716 31.7571 29.0003 31.7571H16.429C16.1578 31.7571 15.9576 31.5569 15.9576 31.2857V21.5714C15.9576 20.6744 15.4433 19.8952 14.8174 19.4088C14.0068 18.7788 13.672 18.1455 13.6719 17.5714C13.6719 17.1372 13.8721 16.6767 14.2828 16.2248C14.6934 15.773 15.3102 15.3348 16.1301 14.9488L16.0875 14.8583L16.1301 14.9488C17.7699 14.1766 20.1128 13.6727 22.7145 13.6715Z" fill="#F2A654" stroke="#F2A654" stroke-width="0.2"/>
<path d="M26.3624 16.3047C26.537 16.3394 26.7182 16.3034 26.8662 16.2046C27.0143 16.1057 27.117 15.9521 27.1518 15.7775L27.1518 15.7775C27.1866 15.6029 27.1505 15.4217 27.0517 15.2736C26.9528 15.1256 26.7992 15.0228 26.6247 14.988L26.6246 14.988C25.4158 14.7479 24.0942 14.616 22.7089 14.6167C21.3237 14.6173 20.002 14.7497 18.7943 14.9903L18.7943 14.9903C18.6198 15.0251 18.4662 15.1278 18.3673 15.2758C18.2684 15.4239 18.2324 15.6051 18.2672 15.7797L18.2672 15.7798C18.302 15.9543 18.4047 16.1079 18.5528 16.2068C18.7008 16.3057 18.882 16.3417 19.0566 16.3069L19.0567 16.3069C20.1728 16.0846 21.4088 15.9601 22.709 15.9595C24.009 15.959 25.2452 16.0828 26.3624 16.3047ZM26.3624 16.3047L26.3819 16.2066M26.3624 16.3047C26.3624 16.3047 26.3624 16.3047 26.3624 16.3047L26.3819 16.2066M26.3819 16.2066C25.258 15.9834 24.0153 15.859 22.7089 15.8595C21.4025 15.8602 20.16 15.9852 19.0371 16.2089C18.8885 16.2384 18.7343 16.2078 18.6083 16.1236C18.4823 16.0395 18.3949 15.9088 18.3652 15.7602C18.3357 15.6116 18.3663 15.4574 18.4505 15.3314C18.5346 15.2054 18.6653 15.118 18.8139 15.0883C20.0149 14.8491 21.33 14.7173 22.7089 14.7167C24.0879 14.716 25.403 14.8473 26.6051 15.0861C26.7537 15.1157 26.8844 15.2032 26.9685 15.3291C27.0527 15.4551 27.0833 15.6094 27.0538 15.758C27.0241 15.9066 26.9367 16.0373 26.8107 16.1214C26.6847 16.2055 26.5305 16.2362 26.3819 16.2066Z" fill="#F2A654" stroke="#F2A654" stroke-width="0.2"/>
</svg>
