<svg width="47" height="47" viewBox="0 0 47 47" fill="none" xmlns="http://www.w3.org/2000/svg">
<path d="M27.8662 17.7269C27.8654 17.8549 27.8606 17.9828 27.8519 18.1104C27.8475 18.1736 27.8408 18.2365 27.8341 18.2994C27.8115 18.5128 27.8617 18.1235 27.8286 18.3346C27.7871 18.5992 27.7197 18.8592 27.6367 19.1136C27.6178 19.1717 27.5968 19.229 27.5757 19.2863C27.5633 19.3203 27.4847 19.5124 27.5661 19.3201C27.5189 19.4315 27.4657 19.5404 27.4107 19.6481C27.2922 19.8802 27.1517 20.1005 26.999 20.3115C26.8791 20.477 27.1059 20.1791 26.9785 20.3387C26.9411 20.3855 26.9021 20.4309 26.8632 20.4764C26.7853 20.5672 26.7027 20.6538 26.6186 20.7388C26.5345 20.8239 26.4459 20.9045 26.3561 20.9835C26.3111 21.0229 26.2648 21.0608 26.2185 21.0988C26.1492 21.1537 26.1562 21.1487 26.2394 21.0836C26.2074 21.1076 26.1752 21.1312 26.1427 21.1544C25.9478 21.2955 25.7407 21.4191 25.5278 21.531C25.4207 21.5873 25.3107 21.6378 25.1998 21.6863C25.3908 21.6028 25.2003 21.683 25.1661 21.696C25.0899 21.725 25.0126 21.7507 24.9352 21.776C24.7 21.8527 24.4581 21.9075 24.2144 21.9488C24.0038 21.9845 24.3923 21.9291 24.1792 21.9544C24.1164 21.9619 24.0534 21.967 23.9903 21.9721C23.8413 21.9842 23.6917 21.9869 23.5423 21.986C23.4146 21.9852 23.2871 21.9773 23.1599 21.9669C23.097 21.9615 23.0342 21.9548 22.9716 21.9469C23.1855 21.9723 22.9752 21.9448 22.9374 21.9383C22.6738 21.8937 22.4151 21.8232 22.1621 21.7373C22.1044 21.7177 22.0474 21.696 21.9904 21.6743C21.7966 21.6005 22.1476 21.7449 21.958 21.662C21.8472 21.6135 21.7391 21.5591 21.6321 21.5028C21.4015 21.3816 21.183 21.2386 20.974 21.0835C21.1388 21.2059 20.9767 21.0838 20.9485 21.0608C20.9024 21.0226 20.857 20.9837 20.8123 20.9439C20.7224 20.865 20.6368 20.7814 20.5527 20.6963C20.4686 20.6112 20.3891 20.5217 20.3112 20.4309C20.2722 20.3855 20.2348 20.3387 20.1975 20.292C20.331 20.4592 20.1679 20.247 20.1446 20.2139C20.0057 20.0173 19.8845 19.8086 19.7751 19.5943C19.7476 19.5405 19.7221 19.4856 19.6965 19.4308C19.681 19.3975 19.6028 19.207 19.6816 19.3997C19.6277 19.2678 19.5818 19.1328 19.5393 18.9969C19.4653 18.7604 19.4134 18.5174 19.375 18.2727C19.4084 18.4858 19.3765 18.2747 19.3725 18.2367C19.3662 18.1736 19.3611 18.1104 19.3571 18.0471C19.3469 17.8977 19.346 17.7479 19.3488 17.5982C19.3512 17.4709 19.3606 17.3439 19.3725 17.2171C19.376 17.1794 19.4059 16.9672 19.375 17.1811C19.3839 17.1192 19.3951 17.0578 19.4063 16.9964C19.4542 16.7338 19.5277 16.4763 19.6166 16.2248C19.6369 16.1674 19.6593 16.1107 19.6816 16.0541C19.6053 16.2473 19.6813 16.0568 19.6965 16.023C19.7462 15.9129 19.8019 15.8055 19.8594 15.6993C19.9167 15.5935 19.9796 15.4908 20.0443 15.3894C20.0765 15.3387 20.1106 15.2893 20.1446 15.2399C20.1674 15.2068 20.3293 14.9928 20.1975 15.1619C20.3447 14.9731 20.5083 14.7975 20.6803 14.6314C20.7664 14.5483 20.8568 14.4698 20.9485 14.393C20.9761 14.3699 21.1377 14.2458 20.974 14.3703C21.0376 14.3219 21.1032 14.2761 21.1691 14.2308C21.3675 14.0942 21.5777 13.9755 21.7934 13.8685C21.8478 13.842 21.9027 13.8164 21.958 13.7918C22.1466 13.7066 21.7975 13.8557 21.9904 13.7795C22.1231 13.7271 22.2589 13.6829 22.3955 13.642C22.5138 13.6066 22.6339 13.5777 22.7543 13.5511C22.8151 13.5377 22.8763 13.5266 22.9375 13.5154C22.9747 13.5086 23.1856 13.4787 22.9717 13.5068C23.2459 13.4708 23.5232 13.4624 23.7994 13.471C23.9264 13.4749 24.053 13.486 24.1792 13.4994C24.3926 13.5221 24.0034 13.4719 24.2144 13.505C24.276 13.5146 24.3371 13.5265 24.3983 13.5385C24.6599 13.5895 24.9161 13.6661 25.1661 13.7578C25.2001 13.7703 25.3923 13.8489 25.1999 13.7675C25.2557 13.7911 25.3106 13.8167 25.3655 13.8423C25.4749 13.8933 25.5815 13.9502 25.687 14.0089C25.792 14.0674 25.8939 14.1315 25.9945 14.1973C26.0447 14.2302 26.0937 14.2648 26.1427 14.2994C26.172 14.3202 26.3341 14.4443 26.1717 14.3178C26.3605 14.4649 26.536 14.6285 26.7022 14.8006C26.7853 14.8866 26.8638 14.9771 26.9406 15.0688C26.9637 15.0964 27.0878 15.258 26.9633 15.0942C26.9996 15.142 27.0342 15.1909 27.0687 15.2399C27.2076 15.4366 27.3288 15.6452 27.4382 15.8595C27.4657 15.9134 27.4913 15.9682 27.5169 16.023C27.5324 16.0563 27.6105 16.2468 27.5317 16.0541C27.5779 16.1671 27.6179 16.2825 27.6557 16.3985C27.7324 16.6337 27.7872 16.8756 27.8286 17.1193C27.8643 17.3299 27.8088 16.9414 27.8341 17.1545C27.8416 17.2173 27.8467 17.2804 27.8519 17.3434C27.8622 17.4709 27.8654 17.599 27.8662 17.7269C27.8689 18.1647 28.2295 18.5301 28.6694 18.5301C29.1052 18.5301 29.4754 18.1647 29.4726 17.7269C29.4586 15.474 28.1332 13.3382 26.0662 12.4046C23.9054 11.4286 21.3923 11.8304 19.6319 13.4139C17.9387 14.937 17.3181 17.452 18.0472 19.5985C18.4005 20.6386 19.046 21.5855 19.9057 22.272C20.8374 23.0158 21.9133 23.4417 23.0969 23.5675C24.7294 23.7409 26.3739 23.1262 27.5815 22.0399C28.7898 20.9529 29.4625 19.3416 29.4726 17.7269C29.4753 17.289 29.1052 16.9237 28.6694 16.9237C28.2295 16.9237 27.8689 17.2891 27.8662 17.7269Z" fill="#F2A654"/>
<path d="M29.406 23.391C29.5184 23.4627 29.6289 23.5374 29.7373 23.6151C29.7586 23.6304 29.9349 23.7658 29.7869 23.6501C29.8393 23.6911 29.8903 23.7337 29.9414 23.7763C30.1624 23.9609 30.3675 24.164 30.561 24.377C30.6504 24.4755 30.7351 24.5781 30.818 24.682C30.701 24.5354 30.8373 24.7104 30.8529 24.7318C30.8919 24.7858 30.9301 24.8404 30.9673 24.8956C31.1309 25.135 31.2736 25.3881 31.4021 25.6478C31.4316 25.7082 31.4601 25.7691 31.4877 25.8304C31.5809 26.0353 31.4273 25.6778 31.5117 25.887C31.5624 26.0127 31.6069 26.1408 31.6493 26.2696C31.7423 26.5522 31.81 26.8426 31.8614 27.1354C31.8662 27.1628 31.8986 27.3925 31.8732 27.1973C31.8823 27.2668 31.889 27.3366 31.8956 27.4064C31.9092 27.5474 31.9155 27.6889 31.9195 27.8304C31.9216 27.9035 31.9211 27.9767 31.9211 28.0498V32.1449C31.9211 32.1968 31.9195 32.2225 31.9169 32.2742C31.9065 32.4879 31.9504 32.1032 31.9131 32.3112C31.9021 32.3724 31.8853 32.4323 31.8685 32.492C31.8586 32.5274 31.7842 32.7206 31.8648 32.53C31.8176 32.6418 31.7549 32.7462 31.688 32.847C31.5756 33.0162 31.7974 32.7202 31.6654 32.8741C31.6132 32.935 31.5546 32.9901 31.4955 33.044C31.3457 33.1807 31.634 32.9491 31.4684 33.0666C31.4191 33.1016 31.3667 33.1319 31.3144 33.1622C31.2618 33.1926 31.2065 33.2181 31.1514 33.2435C31.3372 33.158 31.1505 33.2354 31.1133 33.2471C31.0541 33.2658 30.9933 33.2788 30.9326 33.2917C30.7258 33.3358 31.1089 33.2783 30.8957 33.2956C30.8515 33.2991 30.8064 33.2997 30.7621 33.2997H16.4472C16.3905 33.2997 16.3749 33.2983 16.3184 33.2956C16.1047 33.2851 16.4894 33.3291 16.2814 33.2917C16.2203 33.2807 16.1604 33.2639 16.1007 33.2471C16.0614 33.2354 16.0225 33.2225 15.984 33.2083C16.081 33.252 16.0887 33.2552 16.0073 33.218C15.8973 33.1673 15.795 33.1016 15.6965 33.0316C15.8602 33.1479 15.7032 33.03 15.6741 33.0035C15.6297 32.9629 15.5891 32.9184 15.5486 32.8741C15.4119 32.7243 15.6435 33.0126 15.526 32.8469C15.491 32.7977 15.4607 32.7452 15.4305 32.693C15.4 32.6404 15.3745 32.5851 15.3492 32.53C15.4379 32.7227 15.3408 32.4752 15.3287 32.4324C15.3119 32.3723 15.3008 32.3108 15.2898 32.2495C15.3271 32.4569 15.296 32.2516 15.2939 32.2102C15.2927 32.1834 15.2929 32.1562 15.2929 32.1292V28.1918C15.2929 27.9763 15.2939 27.7615 15.3073 27.5462C15.3117 27.4758 15.3184 27.4056 15.3252 27.3355C15.3278 27.3082 15.3586 27.0762 15.331 27.2712C15.3504 27.1339 15.3767 26.9977 15.4053 26.862C15.4664 26.5721 15.553 26.288 15.6549 26.01C15.6782 25.9464 15.7036 25.8837 15.7289 25.8209C15.6578 25.9969 15.7448 25.7897 15.7559 25.7655C15.8116 25.6431 15.8733 25.5236 15.9369 25.4052C16.0739 25.1499 16.2328 24.9068 16.4039 24.6732C16.5354 24.4936 16.3024 24.7988 16.4414 24.625C16.4829 24.573 16.5262 24.5224 16.5694 24.4717C16.6558 24.3705 16.747 24.2734 16.8397 24.178C16.9323 24.0825 17.0295 23.9914 17.128 23.902C17.1776 23.8575 17.2278 23.8138 17.2787 23.771C17.3042 23.7493 17.5279 23.5734 17.3765 23.689C17.5003 23.5945 17.629 23.5067 17.7595 23.4218C18.1257 23.1833 18.277 22.7143 18.0477 22.3228C17.8345 21.9589 17.316 21.7955 16.9487 22.0347C14.9394 23.343 13.6864 25.5757 13.6864 27.9838V31.536C13.6864 32.2083 13.7028 32.8255 14.0145 33.4506C14.4657 34.3552 15.4784 34.9063 16.4703 34.9063H30.7575C31.9243 34.9063 32.9406 34.1697 33.3567 33.0928C33.5658 32.5517 33.5276 31.9656 33.5276 31.397V27.9735C33.5276 26.7297 33.1898 25.4993 32.5678 24.4237C31.9985 23.4391 31.1728 22.6139 30.2169 22.0039C29.8474 21.7682 29.3325 21.9256 29.1179 22.2921C28.8901 22.6809 29.0376 23.156 29.406 23.391ZM40.4932 22.1933C40.4921 22.3202 40.4849 22.4471 40.4716 22.5733C40.494 22.3601 40.4696 22.5672 40.4625 22.6063C40.4514 22.667 40.4369 22.727 40.4224 22.787C40.3937 22.9058 40.355 23.0219 40.3133 23.1365C40.2427 23.3304 40.3855 22.9804 40.3011 23.1679C40.2681 23.2411 40.2305 23.3121 40.1923 23.3825C40.1353 23.4878 40.0697 23.5882 40.0016 23.6866C39.8859 23.8538 40.11 23.5557 39.9827 23.714C39.9454 23.7604 39.9055 23.8048 39.8657 23.8491C39.7861 23.9378 39.6994 24.0199 39.6108 24.0994C39.5664 24.1392 39.52 24.1766 39.4735 24.214C39.6402 24.0799 39.4284 24.2397 39.3938 24.2627C39.2939 24.3292 39.1888 24.3874 39.0824 24.4425C39.0289 24.4703 38.9739 24.4951 38.9189 24.5198C39.1087 24.4344 38.921 24.5151 38.8855 24.528C38.7704 24.5699 38.6521 24.6021 38.5332 24.6308C38.473 24.6453 38.412 24.6565 38.3512 24.6676C38.26 24.6819 38.2693 24.6812 38.3793 24.6656C38.3376 24.6703 38.2958 24.6743 38.2539 24.6775C38.1267 24.6885 37.9988 24.6884 37.8713 24.6848C37.8079 24.6829 37.7448 24.6775 37.6817 24.6721C37.4687 24.6538 37.8567 24.7018 37.6473 24.6676C37.5255 24.6477 37.4057 24.6176 37.2871 24.5842C37.2284 24.5677 37.1707 24.5479 37.113 24.528C37.0749 24.5146 37.0369 24.5004 36.9993 24.4854C37.0978 24.5282 37.1062 24.5314 37.0245 24.495C36.9149 24.4457 36.8095 24.3873 36.7061 24.3263C36.6545 24.2959 36.6047 24.2627 36.5549 24.2296C36.5246 24.2095 36.3619 24.0876 36.5249 24.214C36.3207 24.0557 36.1401 23.8685 35.9784 23.6675C36.1072 23.8276 35.984 23.6681 35.9628 23.6376C35.9288 23.5884 35.8974 23.5374 35.8661 23.4864C35.8032 23.384 35.7487 23.2766 35.6974 23.168C35.6095 22.982 35.7594 23.3291 35.6852 23.1366C35.6632 23.0798 35.6445 23.0218 35.6259 22.9639C35.5817 22.8271 35.5506 22.6865 35.5248 22.5453C35.4867 22.3365 35.5426 22.7234 35.5203 22.5109C35.5136 22.4478 35.5107 22.3845 35.5076 22.3213C35.5016 22.1937 35.5064 22.066 35.5149 21.9387C35.5175 21.9003 35.5456 21.6887 35.5148 21.9028C35.5236 21.8414 35.5359 21.7805 35.5482 21.7197C35.5766 21.5795 35.618 21.4423 35.6644 21.3072C35.6764 21.2721 35.7549 21.0816 35.6726 21.2738C35.6964 21.2184 35.7232 21.1643 35.7499 21.1103C35.8031 21.0028 35.8651 20.8999 35.9298 20.7989C35.962 20.7485 35.9969 20.7 36.0318 20.6516C35.9124 20.8175 36.0297 20.6561 36.054 20.627C36.1431 20.5202 36.2416 20.4217 36.3433 20.327C36.387 20.2864 36.4328 20.2482 36.4785 20.2101C36.5475 20.1548 36.5404 20.1602 36.4574 20.226C36.4895 20.2024 36.522 20.1795 36.5549 20.1571C36.67 20.0775 36.792 20.0085 36.9161 19.9441C36.9696 19.9164 37.0246 19.8916 37.0796 19.8669C36.882 19.9559 37.1305 19.8526 37.1706 19.8389C37.3258 19.7856 37.486 19.7485 37.6473 19.7191C37.8561 19.6809 37.4691 19.7369 37.6817 19.7146C37.7659 19.7057 37.8506 19.7025 37.9351 19.7001C38.0834 19.6959 38.2319 19.7056 38.3793 19.7211C38.1661 19.6987 38.3732 19.7231 38.4123 19.7302C38.4932 19.745 38.5729 19.7651 38.6524 19.7859C38.7312 19.8065 38.8085 19.8322 38.8855 19.8586C38.9236 19.8721 38.9615 19.8863 38.9991 19.9012C38.9006 19.8584 38.8922 19.8553 38.9739 19.8917C39.1017 19.9492 39.224 20.0184 39.3434 20.0917C39.3943 20.123 39.4436 20.1571 39.4927 20.1911C39.5639 20.2435 39.5575 20.2373 39.4735 20.1727C39.5047 20.1973 39.5355 20.2225 39.5658 20.2482C39.6725 20.3374 39.771 20.4359 39.8657 20.5376C39.9198 20.5958 39.9702 20.6573 40.02 20.7192C39.8859 20.5525 40.0457 20.7643 40.0687 20.7989C40.1463 20.9156 40.2132 21.0389 40.2753 21.1643C40.292 21.198 40.37 21.3865 40.2915 21.1936C40.3221 21.2687 40.3477 21.3457 40.3726 21.4228C40.4167 21.5596 40.4479 21.7002 40.4736 21.8415C40.488 21.9327 40.4873 21.9234 40.4716 21.8134C40.4764 21.8551 40.4804 21.8969 40.4836 21.9388C40.4909 22.0233 40.4925 22.1084 40.4932 22.1933C40.4974 22.6311 40.8555 22.9965 41.2965 22.9965C41.7312 22.9965 42.1039 22.6312 42.0997 22.1933C42.0885 21.0233 41.5906 19.8818 40.7017 19.1122C39.7409 18.2805 38.5262 17.9811 37.2817 18.1599C36.1371 18.3244 35.1236 19.0802 34.5104 20.0384C33.8746 21.032 33.7356 22.3329 34.0956 23.4489C34.3957 24.3791 35.0248 25.1576 35.8444 25.682C36.7031 26.2316 37.7247 26.3692 38.7168 26.2266C40.6655 25.9465 42.0814 24.11 42.0997 22.1933C42.1039 21.7554 41.7312 21.3901 41.2965 21.3901C40.8555 21.3901 40.4974 21.7555 40.4932 22.1933Z" fill="#F2A654"/>
<path d="M41.6347 26.1239C41.6904 26.1597 41.7455 26.1963 41.8001 26.2339C41.8227 26.2495 41.997 26.3839 41.8489 26.267C41.9525 26.3487 42.05 26.438 42.1451 26.5294C42.2403 26.6207 42.3287 26.719 42.4146 26.8191C42.4325 26.8401 42.5657 27.0146 42.4526 26.8639C42.5055 26.9345 42.5545 27.008 42.6027 27.0818C42.6754 27.193 42.7398 27.3094 42.8012 27.4271C42.8321 27.4862 42.86 27.5469 42.8878 27.6075C42.8081 27.4342 42.8985 27.6368 42.9087 27.6636C42.9569 27.7899 42.9956 27.9196 43.0308 28.0501C43.0486 28.116 43.0631 28.1827 43.0776 28.2493C43.0852 28.2847 43.1304 28.5757 43.1046 28.3758C43.1798 28.9582 43.134 29.5712 43.134 30.1564V31.5837C43.134 31.626 43.1319 31.6681 43.1278 31.7102C43.1438 31.5998 43.1428 31.5895 43.1249 31.6795C43.116 31.7194 43.0425 31.9047 43.1252 31.7157C43.1012 31.7705 43.0696 31.8217 43.0382 31.8724C42.9341 32.041 43.1496 31.75 43.0165 31.8959C42.9894 31.9256 42.8379 32.0484 43.0002 31.926C42.9525 31.9619 42.9002 31.991 42.8481 32.0199C42.6734 32.1168 43.0083 31.9673 42.817 32.03C42.7762 32.0434 42.5779 32.0751 42.7888 32.0491C42.7505 32.0538 42.6993 32.0553 42.6608 32.0553H35.5167C35.0788 32.0553 34.7134 32.4206 34.7134 32.8585C34.7134 33.2964 35.0788 33.6617 35.5167 33.6617H42.2536C42.8197 33.6617 43.3805 33.638 43.8585 33.2773C44.3996 32.869 44.7405 32.2695 44.7405 31.5797V29.0014C44.7405 27.9907 44.4873 27.0038 43.9166 26.1608C43.5276 25.5864 43.0287 25.1113 42.4456 24.7369C42.0767 24.5001 41.5608 24.6594 41.3466 25.025C41.1182 25.4146 41.267 25.8878 41.6347 26.1239ZM11.7084 22.1933C11.7072 22.3202 11.7 22.4471 11.6867 22.5733C11.7091 22.3601 11.6848 22.5672 11.6776 22.6063C11.6666 22.667 11.652 22.727 11.6375 22.787C11.6089 22.9058 11.5702 23.0219 11.5284 23.1365C11.4578 23.3304 11.6006 22.9804 11.5162 23.1679C11.4832 23.2411 11.4456 23.3121 11.4075 23.3825C11.3504 23.4878 11.2849 23.5882 11.2167 23.6866C11.101 23.8538 11.3252 23.5557 11.1978 23.714C11.1605 23.7604 11.1206 23.8048 11.0808 23.8491C11.0013 23.9378 10.9146 24.0199 10.826 24.0994C10.7816 24.1392 10.7351 24.1766 10.6887 24.214C10.8554 24.0799 10.6435 24.2397 10.6089 24.2627C10.509 24.3292 10.4039 24.3874 10.2975 24.4425C10.244 24.4703 10.189 24.4951 10.134 24.5198C10.3238 24.4344 10.1362 24.5151 10.1006 24.528C9.98557 24.5699 9.86724 24.6021 9.74832 24.6308C9.68815 24.6453 9.62724 24.6565 9.56638 24.6676C9.47513 24.6819 9.48449 24.6812 9.59447 24.6656C9.55275 24.6703 9.51093 24.6743 9.46907 24.6775C9.34184 24.6885 9.21392 24.6884 9.08646 24.6848C9.02312 24.6829 8.95997 24.6775 8.89686 24.6721C8.68389 24.6539 9.07187 24.7018 8.86243 24.6676C8.74071 24.6477 8.62092 24.6176 8.50231 24.5842C8.44361 24.5677 8.38587 24.5479 8.32822 24.528C8.29006 24.5146 8.25216 24.5004 8.21453 24.4854C8.31303 24.5282 8.32147 24.5314 8.23973 24.495C8.13008 24.4457 8.02474 24.3873 7.92129 24.3263C7.86974 24.2959 7.8199 24.2627 7.77014 24.2296C7.73985 24.2095 7.57709 24.0876 7.74012 24.2141C7.53588 24.0557 7.35536 23.8685 7.19361 23.6675C7.3224 23.8276 7.19926 23.6681 7.1781 23.6376C7.14404 23.5884 7.11269 23.5374 7.08139 23.4864C7.01842 23.384 6.96398 23.2766 6.91267 23.168C6.82477 22.982 6.97463 23.3291 6.90041 23.1366C6.87852 23.0798 6.85984 23.0218 6.84116 22.9639C6.79705 22.8271 6.76588 22.6866 6.74009 22.5453C6.70195 22.3365 6.75794 22.7234 6.73555 22.5109C6.72894 22.4478 6.72591 22.3845 6.72292 22.3213C6.71682 22.1937 6.72168 22.066 6.73018 21.9387C6.73275 21.9003 6.76084 21.6887 6.73008 21.9028C6.7389 21.8414 6.7512 21.7805 6.76354 21.7197C6.79186 21.5795 6.83331 21.4423 6.87967 21.3072C6.89169 21.2721 6.97022 21.0816 6.88788 21.2738C6.91161 21.2184 6.93842 21.1643 6.96513 21.1103C7.01842 21.0028 7.08038 20.8999 7.14496 20.7989C7.17718 20.7485 7.21211 20.7 7.24699 20.6516C7.12761 20.8175 7.24493 20.6561 7.26925 20.627C7.35834 20.5202 7.45688 20.4217 7.5586 20.327C7.60225 20.2864 7.64801 20.2482 7.69377 20.2101C7.76271 20.1548 7.75564 20.1602 7.67261 20.226C7.70471 20.2024 7.73725 20.1795 7.77019 20.1571C7.88526 20.0775 8.00725 20.0085 8.13136 19.9441C8.18488 19.9164 8.23987 19.8916 8.29481 19.8669C8.09717 19.9559 8.34571 19.8526 8.38578 19.8389C8.54096 19.7856 8.70124 19.7485 8.86248 19.7191C9.07122 19.6809 8.68435 19.7369 8.8969 19.7146C8.98108 19.7057 9.06576 19.7025 9.15031 19.7001C9.29865 19.6959 9.44704 19.7056 9.59451 19.7211C9.38131 19.6987 9.58836 19.7231 9.62747 19.7302C9.70834 19.745 9.78811 19.7651 9.86761 19.7859C9.94637 19.8065 10.0237 19.8322 10.1007 19.8586C10.1388 19.8721 10.1767 19.8863 10.2144 19.9012C10.1159 19.8584 10.1074 19.8553 10.1892 19.8917C10.317 19.9492 10.4393 20.0184 10.5586 20.0917C10.6096 20.123 10.6588 20.1571 10.7079 20.1911C10.7792 20.2435 10.7728 20.2373 10.6888 20.1727C10.72 20.1973 10.7507 20.2225 10.781 20.2482C10.8877 20.3374 10.9863 20.4359 11.0809 20.5376C11.1351 20.5958 11.1855 20.6573 11.2353 20.7192C11.1012 20.5525 11.261 20.7643 11.284 20.7989C11.3616 20.9156 11.4285 21.0389 11.4906 21.1643C11.5073 21.198 11.5852 21.3865 11.5068 21.1936C11.5373 21.2687 11.563 21.3457 11.5878 21.4228C11.6319 21.5596 11.6631 21.7002 11.6889 21.8415C11.7032 21.9327 11.7025 21.9234 11.6868 21.8134C11.6916 21.8551 11.6956 21.8969 11.6988 21.9388C11.7059 22.0233 11.7075 22.1084 11.7084 22.1933C11.7125 22.6311 12.0706 22.9965 12.5116 22.9965C12.9463 22.9965 13.319 22.6312 13.3148 22.1933C13.3037 21.0233 12.8058 19.8818 11.9168 19.1122C10.9561 18.2805 9.7413 17.9811 8.49681 18.1599C7.35228 18.3244 6.33875 19.0802 5.7256 20.0384C5.08976 21.032 4.95078 22.3329 5.31081 23.4489C5.6109 24.3791 6.23993 25.1576 7.05954 25.682C7.9183 26.2316 8.93982 26.3692 9.932 26.2266C11.8807 25.9465 13.2966 24.11 13.3149 22.1933C13.319 21.7554 12.9463 21.3901 12.5116 21.3901C12.0705 21.3901 11.7125 21.7555 11.7084 22.1933ZM11.6974 32.0552H4.5824C4.51535 32.0552 4.31867 32.0254 4.51567 32.0595C4.4554 32.0491 4.39711 32.03 4.33919 32.011C4.52563 32.072 4.35631 32.0145 4.31348 31.9908C4.27585 31.9699 4.12874 31.8496 4.2831 31.9777C4.24744 31.9481 4.08239 31.7534 4.20925 31.9215C4.17326 31.8738 4.14421 31.8214 4.11534 31.7693C4.01845 31.5947 4.16789 31.9296 4.1052 31.7383C4.09184 31.6975 4.06013 31.4991 4.0861 31.7101C4.0817 31.6742 4.07991 31.6185 4.07991 31.5826V28.8664C4.07991 28.7244 4.0884 28.5831 4.10185 28.4418C4.12392 28.21 4.07376 28.6074 4.11149 28.3792C4.12273 28.3111 4.13746 28.2436 4.1522 28.1761C4.18139 28.0426 4.22072 27.9114 4.26327 27.7817C4.28438 27.7173 4.30876 27.654 4.33308 27.5908C4.26419 27.7698 4.37324 27.5068 4.38862 27.475C4.44696 27.3544 4.51424 27.2384 4.58419 27.1243C4.61908 27.0675 4.65671 27.0124 4.69435 26.9573C4.70931 26.9354 4.84352 26.7588 4.72781 26.9064C4.90562 26.6796 5.11239 26.4767 5.33353 26.2926C5.50377 26.1507 5.20295 26.3868 5.38223 26.2563C5.43611 26.2171 5.49193 26.1805 5.54765 26.144C5.91309 25.9045 6.06561 25.4373 5.8358 25.045C5.6231 24.682 5.10344 24.5167 4.73685 24.7569C3.67591 25.4521 2.89637 26.5084 2.60308 27.7491C2.44083 28.4354 2.47337 29.1416 2.47337 29.8405V31.5746C2.47337 32.7268 3.43008 33.6616 4.57589 33.6616H11.6972C12.1351 33.6616 12.5004 33.2963 12.5004 32.8584C12.5004 32.4206 12.1352 32.0552 11.6974 32.0552Z" fill="#F2A654"/>
</svg>
