<svg width="32" height="26" viewBox="0 0 32 26" fill="none" xmlns="http://www.w3.org/2000/svg">
<path d="M31.8627 8.13713C31.7748 8.04925 31.6555 7.99989 31.5312 7.99989C31.4069 7.99989 31.2877 8.04925 31.1997 8.13713L28.4898 10.847L21.2302 3.4343L23.8635 0.800943C23.9072 0.757444 23.9419 0.705759 23.9656 0.648845C23.9892 0.591931 24.0015 0.530906 24.0015 0.469264C24.0016 0.407622 23.9895 0.346573 23.9659 0.289611C23.9424 0.232649 23.9078 0.180893 23.8642 0.137305C23.8206 0.0937174 23.7689 0.0591541 23.7119 0.0355935C23.655 0.012033 23.5939 -6.23597e-05 23.5323 2.41765e-07C23.4706 6.28433e-05 23.4096 0.0122821 23.3527 0.0359583C23.2958 0.0596345 23.2441 0.0943029 23.2006 0.137979L19.6209 3.71769C19.3859 3.95264 19.2036 4.23498 19.0863 4.5459C18.969 4.85681 18.9193 5.18916 18.9406 5.52079H18.3131C17.8455 5.52098 17.3833 5.61968 16.9564 5.81047C16.5296 6.00126 16.1477 6.27985 15.8357 6.62809L15.7446 6.72988C14.8825 6.29797 13.9377 6.05592 12.9741 6.02007C13.0892 5.6181 13.0947 5.19268 12.99 4.78787C12.8854 4.38306 12.6745 4.01358 12.3791 3.71769L8.79933 0.137979C8.7114 0.0501529 8.59219 0.0008384 8.46791 0.000876192C8.34363 0.000913983 8.22445 0.0503009 8.13657 0.13818C8.04869 0.22606 7.9993 0.345239 7.99927 0.46952C7.99923 0.5938 8.04854 0.71301 8.13637 0.800943L10.8088 3.47341L3.54923 10.8862L0.800189 8.13713C0.712256 8.0493 0.593046 7.99998 0.468766 8.00002C0.344485 8.00006 0.225306 8.04945 0.137426 8.13733C0.0495468 8.22521 0.000159884 8.34439 0.000122092 8.46867C8.43004e-05 8.59295 0.0493988 8.71216 0.137225 8.80009L3.13919 11.802C3.1788 11.8701 3.23542 11.9267 3.3035 11.9663L3.71694 12.3798C4.01292 12.675 4.38238 12.8859 4.78714 12.9905C5.19189 13.0951 5.61724 13.0897 6.01921 12.9749C6.031 13.2937 6.06547 13.6113 6.12236 13.9253C5.9041 14.0255 5.70545 14.1639 5.53572 14.3338L4.50667 15.3629C4.2226 15.647 4.02914 16.0089 3.95077 16.4029C3.8724 16.797 3.91263 17.2054 4.06637 17.5765C4.22011 17.9477 4.48046 18.265 4.8145 18.4881C5.14854 18.7113 5.54127 18.8305 5.94301 18.8305C6.00624 18.8305 6.06897 18.8273 6.13118 18.8216C6.1049 19.1029 6.13762 19.3866 6.22727 19.6545C6.31692 19.9225 6.46151 20.1687 6.6518 20.3775C6.84208 20.5864 7.07387 20.7532 7.33232 20.8673C7.59078 20.9814 7.87021 21.0403 8.15273 21.0402C8.21596 21.0402 8.27869 21.037 8.3409 21.0313C8.31463 21.3126 8.34736 21.5963 8.43702 21.8642C8.52667 22.1322 8.67126 22.3784 8.86155 22.5872C9.05183 22.7961 9.28361 22.9629 9.54206 23.077C9.8005 23.1911 10.0799 23.25 10.3624 23.2499C10.4257 23.2499 10.4884 23.2467 10.5506 23.2411C10.5123 23.6568 10.6031 24.0743 10.8105 24.4366C11.0179 24.799 11.332 25.0886 11.7099 25.266C12.0879 25.4435 12.5113 25.5001 12.9226 25.4283C13.3339 25.3565 13.7131 25.1597 14.0085 24.8647L14.6853 24.1878L15.3622 24.8647C15.6463 25.1487 16.0082 25.3421 16.4022 25.4204C16.7962 25.4988 17.2046 25.4585 17.5757 25.3048C17.9468 25.1511 18.2641 24.8908 18.4873 24.5568C18.7105 24.2229 18.8297 23.8302 18.8298 23.4285C18.8298 23.3655 18.8266 23.3031 18.821 23.2412C18.8829 23.2468 18.9453 23.2499 19.0082 23.2499C19.5469 23.2499 20.0635 23.0358 20.4445 22.6549C20.8254 22.274 21.0394 21.7573 21.0394 21.2186C21.0394 21.1557 21.0363 21.0933 21.0307 21.0314C21.0926 21.037 21.155 21.0401 21.2179 21.0401C21.7566 21.0401 22.2732 20.8261 22.6542 20.4452C23.0351 20.0643 23.2491 19.5476 23.2492 19.0089C23.2492 18.946 23.246 18.8836 23.2404 18.8217C23.3023 18.8273 23.3647 18.8305 23.4276 18.8305C23.8293 18.8305 24.2221 18.7114 24.5561 18.4882C24.8902 18.265 25.1505 17.9477 25.3043 17.5766C25.458 17.2054 25.4982 16.797 25.4198 16.4029C25.3415 16.0089 25.148 15.647 24.8639 15.3629L24.2957 14.7947C24.9566 14.2921 25.5208 13.6736 25.9608 12.9696C26.3652 13.0886 26.7942 13.0966 27.2027 12.9929C27.6113 12.8891 27.9844 12.6774 28.283 12.3798L31.8627 8.80009C31.9506 8.71217 32 8.59293 32 8.46861C32 8.34428 31.9506 8.22505 31.8627 8.13713ZM4.3799 11.7168L4.21221 11.5491L11.4718 4.13639L11.7161 4.38065C11.9794 4.64457 12.1273 5.00218 12.1273 5.37501C12.1273 5.74784 11.9794 6.10545 11.7161 6.36936L6.36861 11.7168C6.1047 11.9802 5.74709 12.1281 5.37425 12.1281C5.00142 12.1281 4.64381 11.9802 4.3799 11.7168ZM5.94301 17.893C5.7267 17.893 5.51525 17.8288 5.33541 17.7086C5.15556 17.5884 5.01538 17.4176 4.93261 17.2178C4.84983 17.0179 4.82817 16.798 4.87036 16.5859C4.91255 16.3737 5.0167 16.1788 5.16964 16.0259L6.19869 14.9968C6.30021 14.8951 6.42079 14.8143 6.55353 14.7592C6.68628 14.7041 6.82859 14.6757 6.97232 14.6756C7.11605 14.6755 7.25839 14.7038 7.39119 14.7587C7.524 14.8137 7.64467 14.8943 7.7463 14.9959C7.84794 15.0976 7.92855 15.2182 7.98352 15.351C8.03849 15.4838 8.06674 15.6262 8.06667 15.7699C8.06659 15.9136 8.03819 16.056 7.98308 16.1887C7.92797 16.3214 7.84724 16.442 7.7455 16.5436L6.71639 17.5726C6.61506 17.6745 6.49454 17.7553 6.36179 17.8103C6.22904 17.8653 6.0867 17.8934 5.94301 17.893ZM8.15273 20.1027C7.93641 20.1027 7.72496 20.0385 7.54511 19.9183C7.36526 19.7981 7.22508 19.6273 7.1423 19.4275C7.05951 19.2276 7.03785 19.0077 7.08003 18.7955C7.12221 18.5834 7.22636 18.3885 7.37929 18.2355L8.4084 17.2065C8.61364 17.002 8.89164 16.8873 9.18139 16.8875C9.47113 16.8878 9.74893 17.003 9.95381 17.2079C10.1587 17.4127 10.2739 17.6905 10.2742 17.9803C10.2744 18.27 10.1597 18.548 9.95522 18.7533L8.9261 19.7823C8.82478 19.8842 8.70426 19.965 8.57151 20.02C8.43876 20.075 8.29642 20.1031 8.15273 20.1027ZM10.3624 22.3124C10.2188 22.3128 10.0764 22.2847 9.94367 22.2297C9.81092 22.1747 9.69039 22.0939 9.58907 21.992C9.38426 21.7868 9.26923 21.5086 9.26922 21.2186C9.26921 20.9286 9.38422 20.6505 9.58901 20.4452L10.6181 19.4162C10.7196 19.3144 10.8402 19.2337 10.973 19.1785C11.1057 19.1234 11.248 19.095 11.3918 19.0949C11.5355 19.0948 11.6779 19.1231 11.8107 19.1781C11.9435 19.233 12.0642 19.3136 12.1658 19.4153C12.2675 19.5169 12.3481 19.6376 12.403 19.7704C12.458 19.9033 12.4862 20.0456 12.4861 20.1894C12.486 20.3331 12.4576 20.4754 12.4025 20.6082C12.3473 20.7409 12.2666 20.8615 12.1648 20.963L11.1358 21.992C11.0345 22.0939 10.914 22.1747 10.7812 22.2297C10.6485 22.2847 10.5061 22.3128 10.3624 22.3124ZM14.3745 23.1727L13.3456 24.2017C13.1404 24.4063 12.8623 24.5212 12.5725 24.521C12.2827 24.5208 12.0049 24.4056 11.7999 24.2006C11.595 23.9957 11.4798 23.7178 11.4796 23.428C11.4793 23.1382 11.5942 22.8602 11.7988 22.6549L12.8278 21.626C12.9293 21.5241 13.0499 21.4432 13.1826 21.388C13.3154 21.3328 13.4578 21.3043 13.6016 21.3041C13.7454 21.304 13.8878 21.3322 14.0207 21.3872C14.1536 21.4422 14.2743 21.5228 14.376 21.6245C14.4777 21.7262 14.5583 21.8469 14.6133 21.9798C14.6682 22.1127 14.6965 22.2551 14.6963 22.3989C14.6962 22.5427 14.6677 22.6851 14.6125 22.8178C14.5573 22.9506 14.4764 23.0712 14.3745 23.1727ZM24.5214 16.7992C24.5214 17.0156 24.4572 17.227 24.337 17.4069C24.2169 17.5868 24.046 17.727 23.8462 17.8097C23.6463 17.8925 23.4264 17.9142 23.2142 17.8719C23.002 17.8297 22.8071 17.7255 22.6542 17.5725L19.2954 14.2138C19.2519 14.1703 19.2002 14.1357 19.1433 14.1121C19.0865 14.0885 19.0255 14.0764 18.9639 14.0763C18.9023 14.0763 18.8413 14.0884 18.7844 14.112C18.7275 14.1356 18.6758 14.1701 18.6323 14.2136C18.5887 14.2572 18.5542 14.3089 18.5306 14.3658C18.5071 14.4227 18.4949 14.4837 18.495 14.5453C18.495 14.6069 18.5071 14.6678 18.5307 14.7247C18.5543 14.7816 18.5889 14.8333 18.6325 14.8768L21.9912 18.2355C22.0931 18.337 22.174 18.4576 22.2292 18.5904C22.2844 18.7231 22.3129 18.8655 22.313 19.0093C22.3132 19.1531 22.2849 19.2955 22.23 19.4284C22.175 19.5613 22.0944 19.682 21.9927 19.7837C21.891 19.8854 21.7703 19.966 21.6374 20.021C21.5045 20.076 21.3621 20.1042 21.2183 20.1041C21.0745 20.1039 20.9321 20.0754 20.7993 20.0202C20.6666 19.965 20.546 19.8841 20.4445 19.7823L17.0858 16.4235C16.9979 16.3356 16.8786 16.2862 16.7543 16.2862C16.63 16.2862 16.5107 16.3356 16.4228 16.4235C16.3349 16.5114 16.2855 16.6306 16.2855 16.755C16.2855 16.8793 16.3349 16.9985 16.4228 17.0865L19.7815 20.4452C19.8833 20.5467 19.964 20.6673 20.0191 20.8001C20.0742 20.9328 20.1026 21.0751 20.1027 21.2188C20.1028 21.3626 20.0745 21.5049 20.0196 21.6377C19.9646 21.7705 19.884 21.8911 19.7824 21.9928C19.6807 22.0944 19.5601 22.175 19.4273 22.23C19.2945 22.285 19.1522 22.3132 19.0084 22.3131C18.8647 22.3131 18.7224 22.2847 18.5897 22.2295C18.4569 22.1744 18.3363 22.0937 18.2348 21.992L14.8761 18.6332C14.8326 18.5896 14.7809 18.555 14.724 18.5313C14.6671 18.5077 14.6061 18.4955 14.5445 18.4954C14.4829 18.4954 14.4219 18.5075 14.3649 18.531C14.308 18.5546 14.2563 18.5891 14.2127 18.6326C14.1691 18.6762 14.1346 18.7279 14.111 18.7848C14.0874 18.8417 14.0753 18.9027 14.0753 18.9643C14.0753 19.026 14.0875 19.087 14.1111 19.1439C14.1347 19.2008 14.1693 19.2525 14.2129 19.296L17.5716 22.6548C17.6732 22.7563 17.7538 22.8769 17.8088 23.0095C17.8637 23.1422 17.8921 23.2844 17.8921 23.4281C17.8921 23.5717 17.8638 23.7139 17.8089 23.8466C17.754 23.9793 17.6734 24.0999 17.5719 24.2015C17.4703 24.3031 17.3498 24.3837 17.2171 24.4386C17.0844 24.4936 16.9422 24.5219 16.7986 24.522C16.655 24.522 16.5127 24.4937 16.38 24.4388C16.2473 24.3838 16.1267 24.3033 16.0252 24.2018L15.3143 23.491C15.51 23.1839 15.6195 22.8299 15.6314 22.466C15.6433 22.1021 15.5572 21.7416 15.3821 21.4224C15.2069 21.1032 14.9493 20.8369 14.636 20.6514C14.3226 20.4659 13.9653 20.3681 13.6012 20.368C13.5383 20.368 13.4759 20.3712 13.414 20.3768C13.4196 20.3149 13.4227 20.2525 13.4227 20.1896C13.4227 19.6509 13.2087 19.1343 12.8278 18.7533C12.4468 18.3724 11.9302 18.1584 11.3915 18.1583C11.3283 18.1583 11.2655 18.1615 11.2033 18.1672C11.2312 17.8701 11.1931 17.5705 11.0919 17.2898C10.9907 17.0091 10.8288 16.7542 10.6177 16.5432C10.4067 16.3323 10.1517 16.1705 9.87095 16.0694C9.5902 15.9684 9.29061 15.9305 8.99353 15.9585C9.01957 15.683 8.98893 15.4051 8.90351 15.1419C8.81809 14.8787 8.6797 14.6358 8.49685 14.4281C8.314 14.2204 8.09057 14.0524 7.84032 13.9343C7.59007 13.8162 7.31829 13.7507 7.04174 13.7416C6.9659 13.315 6.93821 12.8813 6.95919 12.4486C6.98361 12.4262 7.0079 12.4035 7.03157 12.3798L12.379 7.03233C12.4027 7.00863 12.4254 6.98433 12.4479 6.95988C12.5396 6.95556 12.6324 6.95262 12.7268 6.95262C13.5423 6.95304 14.3486 7.12528 15.0931 7.45814L12.1287 10.7714C11.8806 11.0489 11.7482 11.4108 11.7585 11.7829C11.7688 12.1549 11.9211 12.5089 12.1842 12.7723C12.6834 13.2703 13.3598 13.55 14.065 13.55C14.7702 13.55 15.4466 13.2703 15.9458 12.7722L18.4462 10.2712L19.8735 11.6983C20.9953 12.82 22.1169 13.9417 23.2384 15.0635L23.2397 15.0646L24.201 16.0259C24.3029 16.1272 24.3837 16.2477 24.4387 16.3805C24.4936 16.5132 24.5218 16.6555 24.5214 16.7992ZM24.6724 13.1503C24.3638 13.5159 24.0127 13.8433 23.6265 14.1256C22.5965 13.0953 21.5665 12.0652 20.5363 11.0354L18.7777 9.27677C18.6897 9.18887 18.5705 9.13949 18.4462 9.13951C18.3218 9.13952 18.2026 9.18892 18.1147 9.27684L15.2829 12.1093C14.9596 12.4318 14.5216 12.6129 14.065 12.6129C13.6083 12.6129 13.1703 12.4318 12.8471 12.1093C12.7533 12.0155 12.6991 11.8893 12.6954 11.7568C12.6918 11.6242 12.739 11.4953 12.8275 11.3965L16.5343 7.25334C16.7583 7.00329 17.0325 6.80326 17.339 6.66627C17.6455 6.52928 17.9774 6.45842 18.3131 6.4583H19.1997C19.3099 6.67004 19.452 6.86364 19.6209 7.03233L24.9683 12.3798C25.0204 12.4318 25.0745 12.4805 25.1301 12.5267C24.9912 12.7442 24.8383 12.9526 24.6724 13.1503ZM27.62 11.7168C27.3561 11.9802 26.9985 12.1281 26.6257 12.1281C26.2528 12.1281 25.8952 11.9802 25.6313 11.7168L20.2838 6.36936C20.0205 6.10545 19.8726 5.74784 19.8726 5.37501C19.8726 5.00218 20.0205 4.64457 20.2838 4.38065L20.5672 4.09728L27.8268 11.51L27.62 11.7168Z" fill="#F2A654"/>
</svg>
