<svg width="63" height="49" viewBox="0 0 63 49" fill="none" xmlns="http://www.w3.org/2000/svg">
<path d="M62.7297 15.661C62.5566 15.4918 62.3219 15.3968 62.0771 15.3968C61.8324 15.3968 61.5976 15.4918 61.4245 15.661L56.0893 20.8765L41.7969 6.60977L46.9813 1.54152C47.0673 1.4578 47.1356 1.35832 47.1822 1.24879C47.2288 1.13925 47.2529 1.0218 47.253 0.90316C47.2531 0.784522 47.2293 0.667025 47.1829 0.557394C47.1365 0.447763 47.0685 0.348152 46.9827 0.264261C46.8969 0.180371 46.795 0.11385 46.6828 0.0685044C46.5707 0.023159 46.4505 -0.000120019 46.3291 4.65308e-07C46.2078 0.00012095 46.0876 0.0236385 45.9756 0.0692064C45.8635 0.114774 45.7618 0.181498 45.6761 0.265559L38.6285 7.15518C38.1659 7.60737 37.8071 8.15078 37.5762 8.74918C37.3452 9.34757 37.2474 9.98722 37.2892 10.6255H36.0538C35.1333 10.6258 34.2232 10.8158 33.3828 11.183C32.5425 11.5502 31.7907 12.0864 31.1765 12.7566L30.9972 12.9525C29.2998 12.1213 27.4398 11.6554 25.5427 11.5864C25.7692 10.8128 25.78 9.99399 25.574 9.21488C25.368 8.43577 24.9527 7.72466 24.3711 7.15518L17.3235 0.265559C17.1504 0.0965259 16.9157 0.00161361 16.671 0.00168634C16.4264 0.00175908 16.1917 0.0968107 16.0187 0.265946C15.8457 0.435082 15.7485 0.664458 15.7484 0.903652C15.7483 1.14285 15.8454 1.37228 16.0183 1.54152L21.2798 6.68503L6.98735 20.9519L1.57514 15.661C1.40202 15.4919 1.16732 15.397 0.922647 15.3971C0.677968 15.3972 0.443333 15.4922 0.270319 15.6613C0.0973055 15.8305 7.44453e-05 16.0599 4.27316e-08 16.2991C-7.43598e-05 16.5382 0.097014 16.7677 0.269922 16.9369L6.18006 22.7146C6.25805 22.8456 6.36952 22.9546 6.50355 23.0308L7.31751 23.8265C7.90023 24.3948 8.62762 24.8005 9.42448 25.0019C10.2213 25.2032 11.0587 25.1929 11.8501 24.9719C11.8734 25.5855 11.9412 26.1968 12.0532 26.801C11.6235 26.994 11.2324 27.2602 10.8983 27.5873L8.87231 29.5679C8.31304 30.1146 7.93217 30.8112 7.77788 31.5696C7.62358 32.3279 7.70278 33.114 8.00546 33.8284C8.30815 34.5427 8.82072 35.1533 9.47836 35.5829C10.136 36.0124 10.9092 36.2417 11.7001 36.2417C11.8246 36.2417 11.9481 36.2356 12.0706 36.2247C12.0188 36.7661 12.0833 37.3121 12.2598 37.8277C12.4363 38.3434 12.7209 38.8173 13.0955 39.2192C13.4702 39.6212 13.9265 39.9422 14.4353 40.1618C14.9442 40.3814 15.4943 40.4948 16.0505 40.4946C16.175 40.4946 16.2985 40.4885 16.421 40.4776C16.3693 41.019 16.4337 41.5649 16.6102 42.0806C16.7867 42.5962 17.0714 43.0702 17.446 43.4721C17.8206 43.874 18.277 44.195 18.7858 44.4147C19.2946 44.6343 19.8447 44.7476 20.4009 44.7475C20.5254 44.7475 20.6489 44.7414 20.7714 44.7305C20.696 45.5306 20.8746 46.3341 21.283 47.0315C21.6915 47.7288 22.3098 48.2862 23.0538 48.6277C23.7979 48.9693 24.6315 49.0783 25.4413 48.9401C26.251 48.8019 26.9975 48.4231 27.5791 47.8553L28.9116 46.5527L30.2442 47.8554C30.8036 48.402 31.5161 48.7742 32.2918 48.9249C33.0674 49.0757 33.8714 48.9983 34.6021 48.7024C35.3328 48.4066 35.9573 47.9056 36.3968 47.2628C36.8362 46.6201 37.0709 45.8643 37.0711 45.0912C37.0711 44.97 37.0649 44.8498 37.0538 44.7306C37.1756 44.7414 37.2985 44.7475 37.4223 44.7475C38.4829 44.7474 39.5 44.3355 40.25 43.6023C40.9999 42.8691 41.4213 41.8748 41.4214 40.838C41.4214 40.7169 41.4152 40.5967 41.4041 40.4776C41.5259 40.4884 41.6488 40.4945 41.7726 40.4945C42.8332 40.4945 43.8504 40.0826 44.6004 39.3494C45.3504 38.6163 45.7717 37.6219 45.7718 36.5851C45.7718 36.464 45.7656 36.3439 45.7545 36.2249C45.8763 36.2357 45.9992 36.2417 46.123 36.2417C46.914 36.2417 47.6872 36.0125 48.3448 35.5829C49.0025 35.1533 49.5151 34.5428 49.8177 33.8284C50.1204 33.114 50.1996 32.328 50.0453 31.5696C49.891 30.8112 49.5101 30.1146 48.9508 29.5679L47.8322 28.4744C49.1333 27.5069 50.244 26.3167 51.1104 24.9616C51.9065 25.1907 52.751 25.2062 53.5554 25.0065C54.3597 24.8068 55.0943 24.3992 55.6821 23.8265L62.7297 16.9369C62.9028 16.7677 63 16.5382 63 16.2989C63 16.0597 62.9028 15.8302 62.7297 15.661ZM8.62273 22.5506L8.29258 22.2278L22.585 7.96103L23.0659 8.43114C23.5844 8.93908 23.8756 9.62734 23.8756 10.3449C23.8756 11.0625 23.5844 11.7507 23.0659 12.2587L12.538 22.5506C12.0184 23.0574 11.3144 23.3421 10.5804 23.3421C9.84635 23.3421 9.14231 23.0574 8.62273 22.5506ZM11.7001 34.4374C11.2743 34.4373 10.858 34.3138 10.5039 34.0825C10.1498 33.8512 9.87384 33.5225 9.71087 33.1378C9.54791 32.7532 9.50526 32.33 9.58832 31.9217C9.67138 31.5133 9.87643 31.1383 10.1775 30.8439L12.2035 28.8633C12.4034 28.6675 12.6407 28.5121 12.9021 28.406C13.1634 28.3 13.4436 28.2453 13.7266 28.2451C14.0095 28.245 14.2898 28.2993 14.5512 28.4051C14.8127 28.5109 15.0503 28.666 15.2504 28.8616C15.4505 29.0572 15.6092 29.2895 15.7174 29.5451C15.8256 29.8007 15.8812 30.0746 15.8811 30.3513C15.8809 30.6279 15.825 30.9018 15.7165 31.1573C15.608 31.4128 15.4491 31.6448 15.2488 31.8402L13.2227 33.8208C13.0232 34.0169 12.7859 34.1723 12.5246 34.2782C12.2632 34.384 11.983 34.4381 11.7001 34.4374ZM16.0505 38.6903C15.6246 38.6902 15.2084 38.5667 14.8543 38.3354C14.5002 38.1041 14.2242 37.7753 14.0612 37.3907C13.8982 37.0061 13.8556 36.5828 13.9386 36.1745C14.0217 35.7661 14.2267 35.3911 14.5278 35.0966L16.5539 33.1162C16.9579 32.7226 17.5053 32.5018 18.0757 32.5023C18.6461 32.5027 19.193 32.7245 19.5964 33.1188C19.9998 33.5131 20.2266 34.0477 20.2271 34.6054C20.2277 35.163 20.0018 35.6981 19.5992 36.0931L17.5731 38.0737C17.3736 38.2698 17.1363 38.4252 16.875 38.5311C16.6136 38.6369 16.3334 38.691 16.0505 38.6903ZM20.4009 42.9432C20.118 42.9439 19.8378 42.8898 19.5764 42.7839C19.3151 42.6781 19.0778 42.5226 18.8783 42.3266C18.4751 41.9315 18.2487 41.3961 18.2486 40.838C18.2486 40.2799 18.475 39.7446 18.8782 39.3495L20.9043 37.369C21.1042 37.1731 21.3416 37.0177 21.6029 36.9116C21.8643 36.8055 22.1445 36.7508 22.4274 36.7507C22.7104 36.7505 22.9907 36.8049 23.2522 36.9107C23.5136 37.0165 23.7512 37.1716 23.9513 37.3673C24.1514 37.5629 24.3101 37.7952 24.4183 38.0508C24.5265 38.3064 24.5821 38.5804 24.5819 38.857C24.5818 39.1337 24.5258 39.4076 24.4173 39.6631C24.3087 39.9186 24.1497 40.1506 23.9493 40.346L21.9235 42.3266C21.724 42.5226 21.4867 42.6781 21.2254 42.7839C20.964 42.8898 20.6838 42.9439 20.4009 42.9432ZM28.2997 44.5989L26.274 46.5793C25.87 46.9732 25.3226 47.1942 24.7521 47.1938C24.1815 47.1934 23.6344 46.9717 23.231 46.5773C22.8275 46.1829 22.6007 45.6481 22.6002 45.0903C22.5998 44.5325 22.8259 43.9974 23.2287 43.6024L25.2546 41.622C25.4544 41.4259 25.6918 41.2703 25.9532 41.164C26.2146 41.0577 26.4949 41.0029 26.778 41.0026C27.0611 41.0023 27.3415 41.0567 27.6031 41.1625C27.8647 41.2683 28.1024 41.4234 28.3026 41.6191C28.5028 41.8149 28.6616 42.0472 28.7698 42.303C28.878 42.5587 28.9336 42.8328 28.9333 43.1096C28.933 43.3864 28.8769 43.6604 28.7682 43.9159C28.6595 44.1715 28.5003 44.4036 28.2997 44.5989ZM48.2765 32.3323C48.2765 32.7487 48.1502 33.1557 47.9135 33.5019C47.6769 33.8481 47.3406 34.1179 46.9471 34.2772C46.5536 34.4365 46.1206 34.4782 45.7029 34.3969C45.2852 34.3156 44.9015 34.1151 44.6004 33.8207L37.9878 27.3564C37.9021 27.2725 37.8004 27.206 37.6884 27.1606C37.5764 27.1152 37.4563 27.0918 37.3351 27.0917C37.2138 27.0917 37.0938 27.115 36.9817 27.1604C36.8697 27.2057 36.7679 27.2722 36.6822 27.356C36.5965 27.4398 36.5285 27.5393 36.4821 27.6488C36.4357 27.7584 36.4118 27.8757 36.4119 27.9943C36.4119 28.1128 36.4358 28.2302 36.4823 28.3396C36.5287 28.4491 36.5968 28.5486 36.6826 28.6324L43.2952 35.0966C43.4958 35.2919 43.655 35.524 43.7637 35.7796C43.8724 36.0351 43.9285 36.3091 43.9288 36.5859C43.929 36.8627 43.8735 37.1368 43.7652 37.3925C43.657 37.6483 43.4983 37.8807 43.2981 38.0764C43.0979 38.2721 42.8602 38.4273 42.5986 38.533C42.337 38.6388 42.0566 38.6932 41.7735 38.6929C41.4903 38.6926 41.2101 38.6378 40.9486 38.5315C40.6872 38.4252 40.4498 38.2696 40.25 38.0735L33.6375 31.6092C33.4645 31.44 33.2297 31.3449 32.9849 31.3449C32.7402 31.3449 32.5054 31.44 32.3323 31.6092C32.1592 31.7784 32.062 32.0078 32.062 32.2471C32.062 32.4864 32.1592 32.7159 32.3323 32.8851L38.9448 39.3495C39.1451 39.5449 39.304 39.7769 39.4125 40.0324C39.5211 40.2879 39.577 40.5618 39.5771 40.8384C39.5773 41.115 39.5217 41.3889 39.4135 41.6445C39.3053 41.9001 39.1466 42.1324 38.9465 42.328C38.7464 42.5236 38.5089 42.6787 38.2474 42.7845C37.986 42.8903 37.7057 42.9447 37.4228 42.9445C37.1398 42.9444 36.8597 42.8897 36.5983 42.7837C36.337 42.6776 36.0996 42.5222 35.8997 42.3264L29.2871 35.862C29.2015 35.7781 29.0998 35.7114 28.9878 35.6659C28.8758 35.6204 28.7557 35.597 28.6344 35.5969C28.5131 35.5968 28.393 35.62 28.2809 35.6653C28.1688 35.7106 28.0669 35.7771 27.9811 35.8609C27.8954 35.9447 27.8273 36.0443 27.7809 36.1538C27.7345 36.2634 27.7106 36.3808 27.7106 36.4994C27.7106 36.6179 27.7346 36.7353 27.781 36.8449C27.8275 36.9544 27.8956 37.0539 27.9814 37.1377L34.594 43.6021C34.794 43.7975 34.9527 44.0295 35.0609 44.2849C35.1692 44.5402 35.2249 44.8139 35.225 45.0904C35.225 45.3668 35.1694 45.6405 35.0612 45.8959C34.9531 46.1513 34.7945 46.3834 34.5946 46.5789C34.3947 46.7744 34.1573 46.9295 33.8961 47.0353C33.6349 47.1412 33.3549 47.1957 33.0721 47.1957C32.7894 47.1958 32.5094 47.1414 32.2481 47.0356C31.9868 46.9299 31.7494 46.7749 31.5494 46.5795L30.15 45.2114C30.5352 44.6204 30.7507 43.939 30.7742 43.2387C30.7976 42.5383 30.6281 41.8446 30.2833 41.2302C29.9386 40.6159 29.4312 40.1034 28.8144 39.7464C28.1976 39.3894 27.494 39.201 26.7772 39.2009C26.6533 39.2009 26.5305 39.207 26.4087 39.2178C26.4197 39.0987 26.4259 38.9786 26.4259 38.8576C26.4258 37.8207 26.0045 36.8264 25.2545 36.0932C24.5046 35.3601 23.4875 34.9481 22.4269 34.948C22.3024 34.948 22.1789 34.9541 22.0564 34.9651C22.1112 34.3933 22.0364 33.8167 21.8371 33.2765C21.6378 32.7362 21.319 32.2456 20.9035 31.8396C20.488 31.4336 19.986 31.1223 19.4333 30.9277C18.8806 30.7332 18.2907 30.6603 17.7059 30.7142C17.7571 30.184 17.6968 29.6491 17.5286 29.1426C17.3605 28.636 17.088 28.1685 16.728 27.7688C16.368 27.3691 15.9281 27.0457 15.4355 26.8184C14.9428 26.5912 14.4077 26.4649 13.8632 26.4475C13.7139 25.6265 13.6594 24.7918 13.7007 23.9589C13.7488 23.9158 13.7966 23.8721 13.8432 23.8265L24.3711 13.5346C24.4178 13.489 24.4625 13.4422 24.5067 13.3952C24.6872 13.3869 24.8699 13.3812 25.0558 13.3812C26.6613 13.382 28.2487 13.7135 29.7144 14.3542L23.8783 20.731C23.3899 21.265 23.1291 21.9615 23.1494 22.6776C23.1696 23.3937 23.4695 24.0751 23.9874 24.5819C24.9703 25.5405 26.302 26.0788 27.6904 26.0788C29.0787 26.0787 30.4104 25.5404 31.3932 24.5818L36.316 19.7683L39.1259 22.515C41.3344 24.6737 43.5426 26.8326 45.7506 28.9916L45.7532 28.9939L47.6457 30.8439C47.8463 31.0389 48.0053 31.2708 48.1136 31.5263C48.2219 31.7818 48.2772 32.0558 48.2765 32.3323ZM48.5737 25.3095C47.9663 26.0131 47.275 26.6433 46.5146 27.1865C44.4869 25.2035 42.4589 23.221 40.4309 21.239L36.9685 17.8544C36.7954 17.6852 36.5606 17.5901 36.3158 17.5902C36.0711 17.5902 35.8363 17.6853 35.6632 17.8545L30.0881 23.3059C29.4517 23.9266 28.5894 24.2752 27.6903 24.2752C26.7913 24.2752 25.929 23.9266 25.2925 23.3059C25.108 23.1253 25.0012 22.8826 24.994 22.6275C24.9869 22.3723 25.0799 22.1242 25.254 21.934L32.5519 13.96C32.9928 13.4788 33.5326 13.0938 34.136 12.8301C34.7394 12.5665 35.3929 12.4301 36.0538 12.4298H37.7994C38.0164 12.8374 38.296 13.21 38.6285 13.5346L49.1564 23.8265C49.2589 23.9267 49.3655 24.0204 49.4748 24.1092C49.2014 24.5279 48.9004 24.9289 48.5737 25.3095ZM54.3769 22.5506C53.8573 23.0574 53.1533 23.3421 52.4193 23.3421C51.6852 23.3421 50.9812 23.0574 50.4616 22.5506L39.9337 12.2587C39.4153 11.7507 39.1241 11.0625 39.1241 10.3449C39.1241 9.62734 39.4153 8.93908 39.9337 8.43114L40.4916 7.88576L54.7841 22.1525L54.3769 22.5506Z" fill="#FFAA88"/>
</svg>
