<svg width="77" height="42" viewBox="0 0 77 42" fill="none" xmlns="http://www.w3.org/2000/svg">
<path d="M45.9283 10.5795C45.9268 10.811 45.9182 11.0423 45.9024 11.2732C45.8945 11.3874 45.8824 11.5012 45.8703 11.615C45.8293 12.0009 45.9201 11.2969 45.8603 11.6786C45.7853 12.1571 45.6634 12.6273 45.5133 13.0875C45.4791 13.1925 45.441 13.2961 45.403 13.3997C45.3804 13.4612 45.2384 13.8087 45.3855 13.4608C45.3002 13.6624 45.204 13.8593 45.1046 14.0541C44.8902 14.4738 44.6361 14.8723 44.3599 15.2538C44.1432 15.5532 44.5532 15.0145 44.3228 15.3031C44.2553 15.3877 44.1848 15.4699 44.1143 15.552C43.9734 15.7162 43.824 15.8729 43.6719 16.0267C43.5199 16.1806 43.3598 16.3263 43.1972 16.4691C43.116 16.5405 43.0321 16.6091 42.9484 16.6776C42.8231 16.777 42.8357 16.7679 42.9861 16.6501C42.9284 16.6936 42.8701 16.7363 42.8113 16.7783C42.4589 17.0335 42.0843 17.2569 41.6994 17.4593C41.5056 17.5612 41.3066 17.6525 41.1061 17.7402C41.4516 17.5891 41.1069 17.7341 41.0451 17.7577C40.9074 17.8102 40.7675 17.8567 40.6276 17.9024C40.2021 18.0411 39.7647 18.1403 39.3239 18.215C38.9431 18.2795 39.6457 18.1792 39.2603 18.2251C39.1468 18.2386 39.0327 18.2478 38.9187 18.257C38.6492 18.2789 38.3786 18.2839 38.1084 18.2822C37.8776 18.2808 37.647 18.2664 37.4169 18.2477C37.3032 18.2378 37.1897 18.2257 37.0764 18.2115C37.4631 18.2575 37.0828 18.2076 37.0146 18.196C36.5378 18.1152 36.0698 17.9878 35.6124 17.8324C35.508 17.797 35.4049 17.7577 35.3019 17.7185C34.9513 17.585 35.5861 17.8461 35.2432 17.6962C35.0428 17.6086 34.8473 17.5102 34.6538 17.4084C34.2369 17.1891 33.8416 16.9305 33.4636 16.6501C33.7617 16.8714 33.4685 16.6506 33.4176 16.609C33.3342 16.54 33.2521 16.4695 33.1712 16.3976C33.0087 16.2549 32.8538 16.1036 32.7018 15.9497C32.5497 15.7958 32.4058 15.634 32.2649 15.4699C32.1945 15.3877 32.1269 15.3031 32.0593 15.2185C32.3009 15.521 32.0059 15.1372 31.9636 15.0774C31.7125 14.7217 31.4934 14.3443 31.2955 13.9568C31.2458 13.8594 31.1995 13.7602 31.1533 13.6611C31.1252 13.6009 30.9838 13.2564 31.1263 13.6049C31.0289 13.3664 30.9459 13.1222 30.869 12.8764C30.7353 12.4486 30.6413 12.0093 30.5719 11.5667C30.6323 11.952 30.5746 11.5702 30.5673 11.5015C30.5559 11.3874 30.5466 11.2731 30.5395 11.1586C30.521 10.8885 30.5194 10.6175 30.5244 10.3469C30.5287 10.1166 30.5458 9.88684 30.5673 9.65765C30.5737 9.58942 30.6277 9.20559 30.5719 9.59241C30.588 9.4806 30.6083 9.36953 30.6285 9.25847C30.7151 8.7835 30.8481 8.31791 31.0088 7.86302C31.0455 7.75918 31.086 7.65667 31.1264 7.55423C30.9884 7.90378 31.1258 7.55913 31.1534 7.49804C31.2433 7.2989 31.344 7.10475 31.448 6.91267C31.5516 6.72125 31.6654 6.53556 31.7822 6.35211C31.8406 6.26056 31.9022 6.17116 31.9637 6.08184C32.005 6.02199 32.2977 5.63493 32.0594 5.94073C32.3255 5.59923 32.6214 5.28181 32.9326 4.98141C33.0882 4.83108 33.2517 4.68914 33.4176 4.55026C33.4675 4.50843 33.7597 4.28397 33.4636 4.50909C33.5787 4.4216 33.6973 4.33884 33.8164 4.25683C34.1753 4.00972 34.5555 3.79506 34.9456 3.60165C35.044 3.55363 35.1432 3.50739 35.2433 3.46294C35.5843 3.30888 34.9531 3.57841 35.3019 3.4407C35.5419 3.3459 35.7875 3.26588 36.0345 3.19192C36.2484 3.12792 36.4655 3.0758 36.6834 3.02765C36.7933 3.00341 36.904 2.98324 37.0146 2.96307C37.082 2.95079 37.4634 2.89675 37.0765 2.94755C37.5725 2.88239 38.074 2.86711 38.5734 2.88272C38.8031 2.88986 39.0321 2.90986 39.2603 2.9341C39.6462 2.97511 38.9423 2.8843 39.3239 2.94415C39.4353 2.96158 39.546 2.98316 39.6565 3.00474C40.1297 3.09705 40.5929 3.2355 41.0452 3.40144C41.1067 3.42401 41.4541 3.56612 41.1062 3.41895C41.2071 3.46162 41.3065 3.50793 41.4058 3.55425C41.6036 3.64647 41.7964 3.74941 41.9871 3.85557C42.1771 3.96141 42.3614 4.07728 42.5433 4.19632C42.6341 4.25575 42.7228 4.31834 42.8113 4.38093C42.8644 4.41845 43.1575 4.64298 42.8638 4.41413C43.2052 4.68025 43.5227 4.97609 43.8231 5.28729C43.9735 5.44293 44.1154 5.60645 44.2543 5.7723C44.2962 5.82227 44.5205 6.11446 44.2954 5.81837C44.361 5.9047 44.4236 5.99327 44.4861 6.08184C44.7372 6.43753 44.9563 6.81488 45.1542 7.20236C45.204 7.29982 45.2503 7.39893 45.2965 7.49812C45.3246 7.5583 45.4659 7.90287 45.3234 7.55432C45.4069 7.7586 45.4792 7.96736 45.5476 8.17712C45.6864 8.60254 45.7855 9.03991 45.8603 9.48076C45.9248 9.8616 45.8245 9.15894 45.8703 9.54435C45.8838 9.65798 45.8931 9.77204 45.9024 9.88601C45.9211 10.1166 45.9268 10.3482 45.9283 10.5795C45.9332 11.3713 46.5853 12.0322 47.3809 12.0322C48.1691 12.0322 48.8385 11.3714 48.8335 10.5795C48.8081 6.5051 46.4111 2.64266 42.673 0.954198C38.7651 -0.810963 34.2201 -0.0843127 31.0365 2.77946C27.9743 5.53407 26.8519 10.0825 28.1705 13.9643C28.8095 15.8454 29.9768 17.5579 31.5317 18.7994C33.2166 20.1446 35.1625 20.9148 37.303 21.1423C40.2554 21.4561 43.2294 20.3442 45.4134 18.3796C47.5986 16.4138 48.8152 13.4998 48.8335 10.5795C48.8384 9.78764 48.169 9.1269 47.3808 9.1269C46.5853 9.1269 45.9332 9.78781 45.9283 10.5795Z" fill="#FFAA88"/>
<path d="M48.7122 20.8232C48.9155 20.9529 49.1153 21.088 49.3114 21.2284C49.35 21.256 49.6688 21.501 49.4012 21.2917C49.4959 21.3658 49.5882 21.4429 49.6805 21.52C50.0803 21.8538 50.4511 22.2211 50.8011 22.6064C50.9628 22.7844 51.1159 22.97 51.2659 23.1579C51.0542 22.8928 51.3007 23.2094 51.329 23.248C51.3996 23.3456 51.4686 23.4444 51.536 23.5442C51.8317 23.9773 52.0898 24.4349 52.3223 24.9045C52.3756 25.0138 52.4272 25.1239 52.477 25.2348C52.6455 25.6053 52.3679 24.9589 52.5205 25.3371C52.6122 25.5645 52.6927 25.7961 52.7693 26.0291C52.9375 26.5401 53.06 27.0653 53.153 27.5949C53.1616 27.6444 53.2202 28.0599 53.1743 27.7069C53.1907 27.8326 53.2028 27.9588 53.2148 28.0851C53.2393 28.34 53.2508 28.596 53.258 28.8519C53.2617 28.9841 53.2609 29.1164 53.2609 29.2486V36.6546C53.2609 36.7486 53.2579 36.7951 53.2533 36.8885C53.2345 37.275 53.3139 36.5793 53.2464 36.9555C53.2265 37.066 53.1961 37.1743 53.1658 37.2823C53.1477 37.3463 53.0133 37.6959 53.1591 37.3512C53.0736 37.5533 52.9602 37.7422 52.8392 37.9244C52.636 38.2304 53.0372 37.6951 52.7984 37.9735C52.704 38.0835 52.5981 38.1831 52.4912 38.2808C52.2202 38.528 52.7416 38.1091 52.4421 38.3216C52.3529 38.3848 52.2581 38.4397 52.1637 38.4944C52.0686 38.5494 51.9685 38.5955 51.8688 38.6414C52.2048 38.4868 51.8673 38.6268 51.8 38.6481C51.6929 38.6818 51.5829 38.7053 51.4731 38.7287C51.0992 38.8084 51.792 38.7043 51.4063 38.7356C51.3264 38.7421 51.245 38.7432 51.1648 38.7432H25.2762C25.1736 38.7432 25.1453 38.7406 25.0431 38.7356C24.6566 38.7168 25.3524 38.7962 24.9763 38.7287C24.8657 38.7088 24.7574 38.6784 24.6494 38.6481C24.5784 38.6269 24.508 38.6035 24.4384 38.5778C24.6138 38.6569 24.6278 38.6627 24.4806 38.5954C24.2817 38.5037 24.0966 38.3848 23.9184 38.2583C24.2145 38.4685 23.9306 38.2554 23.878 38.2074C23.7977 38.1341 23.7242 38.0536 23.651 37.9734C23.4038 37.7024 23.8227 38.2238 23.6102 37.9243C23.5469 37.8352 23.492 37.7404 23.4373 37.6459C23.3822 37.5508 23.3362 37.4508 23.2903 37.3511C23.4508 37.6995 23.2751 37.252 23.2534 37.1746C23.2229 37.0659 23.2029 36.9547 23.183 36.8438C23.2504 37.2189 23.1941 36.8475 23.1905 36.7727C23.1881 36.7242 23.1886 36.6751 23.1886 36.6263V29.5054C23.1886 29.1157 23.1905 28.7272 23.2146 28.3378C23.2225 28.2106 23.2347 28.0836 23.2469 27.9567C23.2516 27.9074 23.3074 27.4878 23.2575 27.8405C23.2926 27.5923 23.3402 27.3458 23.3918 27.1005C23.5023 26.5762 23.659 26.0624 23.8432 25.5596C23.8853 25.4447 23.9313 25.3312 23.9771 25.2176C23.8485 25.536 24.0059 25.1613 24.0259 25.1174C24.1267 24.8962 24.2383 24.6799 24.3532 24.4658C24.6011 24.0041 24.8883 23.5645 25.1978 23.142C25.4357 22.8171 25.0143 23.3691 25.2656 23.0549C25.3408 22.9608 25.419 22.8693 25.4972 22.7776C25.6535 22.5945 25.8184 22.419 25.9859 22.2464C26.1535 22.0736 26.3292 21.909 26.5075 21.7473C26.597 21.6668 26.6879 21.5878 26.78 21.5104C26.826 21.4712 27.2306 21.1531 26.9569 21.362C27.1807 21.1911 27.4135 21.0324 27.6495 20.8787C28.3117 20.4475 28.5854 19.5993 28.1706 18.8913C27.7851 18.2332 26.8474 17.9376 26.1832 18.3702C22.5492 20.7364 20.2832 24.7741 20.2832 29.1293V35.5534C20.2832 36.7693 20.3128 37.8855 20.8766 39.016C21.6926 40.652 23.5241 41.6486 25.318 41.6486H51.1564C53.2666 41.6486 55.1046 40.3165 55.8572 38.369C56.2354 37.3903 56.1662 36.3304 56.1662 35.3021V29.1105C56.1662 26.8612 55.5553 24.636 54.4305 22.6908C53.4007 20.91 51.9075 19.4177 50.1787 18.3146C49.5105 17.8883 48.5794 18.1729 48.1913 18.8358C47.7792 19.5389 48.046 20.3981 48.7122 20.8232ZM68.7637 18.657C68.7616 18.8866 68.7485 19.116 68.7245 19.3443C68.765 18.9588 68.7209 19.3332 68.7081 19.4039C68.688 19.5138 68.6617 19.6223 68.6355 19.7308C68.5836 19.9456 68.5137 20.1556 68.4382 20.3629C68.3105 20.7136 68.5688 20.0806 68.4161 20.4197C68.3565 20.552 68.2885 20.6804 68.2194 20.8078C68.1163 20.9982 67.9977 21.1798 67.8746 21.3578C67.6653 21.6602 68.0706 21.121 67.8403 21.4073C67.7728 21.4913 67.7007 21.5715 67.6287 21.6516C67.4848 21.8121 67.3281 21.9605 67.1678 22.1044C67.0875 22.1763 67.0035 22.244 66.9195 22.3115C67.221 22.069 66.8379 22.3579 66.7753 22.3996C66.5947 22.5198 66.4046 22.6251 66.2121 22.7248C66.1153 22.775 66.0159 22.8199 65.9164 22.8646C66.2597 22.7101 65.9203 22.856 65.856 22.8795C65.6479 22.9553 65.4339 23.0134 65.2188 23.0653C65.11 23.0916 64.9998 23.1117 64.8898 23.1318C64.7248 23.1578 64.7417 23.1565 64.9405 23.1282C64.8651 23.1368 64.7895 23.1439 64.7138 23.1498C64.4838 23.1696 64.2524 23.1695 64.0218 23.163C63.9072 23.1596 63.793 23.1498 63.6789 23.14C63.2938 23.107 63.9955 23.1937 63.6167 23.1318C63.3965 23.096 63.1798 23.0415 62.9653 22.9811C62.8592 22.9512 62.7547 22.9153 62.6505 22.8795C62.5815 22.8551 62.5129 22.8294 62.4449 22.8025C62.623 22.8798 62.6382 22.8856 62.4904 22.8198C62.2922 22.7305 62.1016 22.625 61.9145 22.5147C61.8213 22.4596 61.7312 22.3996 61.6411 22.3398C61.5863 22.3033 61.2921 22.083 61.5869 22.3116C61.2175 22.0253 60.891 21.6867 60.5985 21.3233C60.8314 21.6127 60.6087 21.3243 60.5704 21.269C60.5088 21.1801 60.4521 21.0878 60.3955 20.9957C60.2816 20.8105 60.1832 20.6163 60.0903 20.4198C59.9314 20.0835 60.2024 20.7112 60.0682 20.363C60.0285 20.2603 59.9947 20.1555 59.9609 20.0507C59.8812 19.8034 59.8248 19.5491 59.7782 19.2936C59.7093 18.916 59.8104 19.6158 59.77 19.2314C59.758 19.1174 59.7526 19.0029 59.7471 18.8886C59.7362 18.6579 59.7449 18.4268 59.7602 18.1966C59.765 18.1271 59.8158 17.7445 59.7601 18.1318C59.776 18.0206 59.7983 17.9106 59.8206 17.8006C59.8718 17.5471 59.9467 17.299 60.0306 17.0545C60.0523 16.9912 60.1944 16.6465 60.0455 16.9941C60.0884 16.8939 60.1369 16.7961 60.1852 16.6985C60.2815 16.5041 60.3937 16.3179 60.5105 16.1353C60.5688 16.0442 60.6319 15.9565 60.6951 15.8688C60.4791 16.169 60.6913 15.877 60.7352 15.8243C60.8964 15.6312 61.0746 15.4531 61.2585 15.2819C61.3375 15.2085 61.4202 15.1393 61.503 15.0704C61.6277 14.9705 61.6149 14.9801 61.4647 15.0992C61.5228 15.0566 61.5816 15.0151 61.6412 14.9747C61.8493 14.8306 62.0699 14.7058 62.2944 14.5894C62.3912 14.5393 62.4906 14.4945 62.59 14.4497C62.2326 14.6107 62.682 14.424 62.7546 14.3991C63.0353 14.3027 63.3251 14.2357 63.6167 14.1824C63.9943 14.1134 63.2945 14.2147 63.6789 14.1743C63.8312 14.1583 63.9843 14.1525 64.1372 14.1481C64.4055 14.1404 64.674 14.1581 64.9406 14.1862C64.555 14.1457 64.9295 14.1896 65.0003 14.2026C65.1465 14.2292 65.2908 14.2656 65.4345 14.3032C65.5769 14.3405 65.7167 14.387 65.856 14.4348C65.925 14.4592 65.9935 14.4848 66.0615 14.5118C65.8834 14.4344 65.8682 14.4287 66.0159 14.4945C66.2471 14.5986 66.4683 14.7237 66.6842 14.8564C66.7762 14.913 66.8653 14.9746 66.9541 15.0362C67.083 15.1308 67.0714 15.1197 66.9195 15.0028C66.9759 15.0474 67.0315 15.0929 67.0863 15.1394C67.2794 15.3006 67.4575 15.4788 67.6287 15.6627C67.7267 15.768 67.8178 15.8792 67.9079 15.9912C67.6653 15.6897 67.9543 16.0728 67.9959 16.1354C68.1363 16.3463 68.2572 16.5694 68.3695 16.7961C68.3997 16.857 68.5408 17.1979 68.3989 16.8491C68.4541 16.9849 68.5004 17.1241 68.5455 17.2637C68.6253 17.511 68.6817 17.7653 68.7282 18.0208C68.7542 18.1858 68.7529 18.1689 68.7246 17.97C68.7332 18.0454 68.7403 18.121 68.7462 18.1968C68.7594 18.3497 68.7623 18.5035 68.7637 18.657C68.7712 19.4488 69.4188 20.1097 70.2163 20.1097C71.0025 20.1097 71.6765 19.4489 71.6689 18.657C71.6488 16.5411 70.7483 14.4767 69.1406 13.0849C67.4031 11.5807 65.2062 11.0393 62.9555 11.3627C60.8856 11.6601 59.0526 13.027 57.9437 14.7599C56.7937 16.5568 56.5423 18.9095 57.1935 20.9279C57.7362 22.6102 58.8739 24.018 60.3561 24.9665C61.9092 25.9603 63.7566 26.2093 65.551 25.9514C69.0753 25.4448 71.6359 22.1235 71.6689 18.657C71.6765 17.8652 71.0025 17.2044 70.2163 17.2044C69.4188 17.2044 68.7712 17.8653 68.7637 18.657Z" fill="#FFAA88"/>
<path d="M70.8284 25.7656C70.9292 25.8303 71.0289 25.8966 71.1276 25.9646C71.1684 25.9927 71.4838 26.2358 71.2158 26.0243C71.4032 26.1722 71.5796 26.3336 71.7516 26.4989C71.9237 26.6641 72.0837 26.8418 72.2389 27.0229C72.2714 27.0609 72.5123 27.3765 72.3077 27.1039C72.4034 27.2315 72.4919 27.3645 72.5792 27.498C72.7107 27.6992 72.8271 27.9096 72.9381 28.1225C72.9939 28.2294 73.0444 28.3391 73.0948 28.4487C72.9506 28.1353 73.114 28.5018 73.1325 28.5502C73.2198 28.7786 73.2897 29.0132 73.3534 29.2491C73.3856 29.3683 73.4118 29.4889 73.4379 29.6094C73.4518 29.6734 73.5335 30.1998 73.4868 29.8382C73.6229 30.8915 73.54 32.0001 73.54 33.0585V35.6398C73.54 35.7162 73.5362 35.7924 73.5287 35.8685C73.5577 35.6688 73.5559 35.6502 73.5235 35.813C73.5074 35.8851 73.3746 36.2203 73.524 35.8785C73.4807 35.9776 73.4236 36.0701 73.3668 36.1619C73.1785 36.4668 73.5683 35.9404 73.3275 36.2044C73.2786 36.2581 73.0045 36.4802 73.2981 36.2587C73.2118 36.3237 73.1171 36.3763 73.023 36.4285C72.707 36.6037 73.3128 36.3335 72.9667 36.4469C72.893 36.471 72.5342 36.5284 72.9157 36.4814C72.8464 36.4899 72.7538 36.4926 72.6842 36.4926H59.764C58.9721 36.4926 58.3113 37.1533 58.3113 37.9452C58.3113 38.7371 58.9721 39.3979 59.764 39.3979H71.9479C72.9716 39.3979 73.9858 39.3549 74.8502 38.7026C75.8289 37.9642 76.4453 36.8801 76.4453 35.6326V30.9695C76.4453 29.1418 75.9874 27.3569 74.9554 25.8324C74.2519 24.7935 73.3496 23.9343 72.295 23.2573C71.628 22.829 70.6949 23.1171 70.3075 23.7783C69.8945 24.4829 70.1634 25.3387 70.8284 25.7656ZM16.7064 18.657C16.7043 18.8866 16.6912 19.116 16.6672 19.3443C16.7078 18.9588 16.6637 19.3332 16.6508 19.4039C16.6308 19.5138 16.6045 19.6223 16.5783 19.7308C16.5264 19.9456 16.4566 20.1556 16.381 20.3629C16.2533 20.7136 16.5116 20.0806 16.3589 20.4197C16.2993 20.552 16.2313 20.6804 16.1622 20.8078C16.059 20.9982 15.9405 21.1798 15.8173 21.3578C15.6081 21.6602 16.0134 21.121 15.7831 21.4073C15.7155 21.4913 15.6435 21.5715 15.5715 21.6516C15.4276 21.8121 15.2709 21.9605 15.1106 22.1044C15.0303 22.1763 14.9463 22.244 14.8623 22.3115C15.1638 22.069 14.7806 22.3579 14.718 22.3996C14.5374 22.5198 14.3473 22.6251 14.1548 22.7248C14.058 22.775 13.9586 22.8199 13.8592 22.8646C14.2024 22.7101 13.8631 22.856 13.7987 22.8795C13.5907 22.9553 13.3767 23.0134 13.1616 23.0653C13.0528 23.0916 12.9427 23.1117 12.8326 23.1318C12.6676 23.1578 12.6845 23.1565 12.8834 23.1282C12.8079 23.1368 12.7323 23.144 12.6566 23.1498C12.4265 23.1696 12.1952 23.1695 11.9647 23.163C11.8501 23.1596 11.7359 23.1498 11.6218 23.14C11.2366 23.107 11.9383 23.1937 11.5595 23.1318C11.3394 23.096 11.1227 23.0415 10.9082 22.9811C10.8021 22.9512 10.6976 22.9153 10.5934 22.8795C10.5244 22.8551 10.4558 22.8294 10.3878 22.8025C10.5659 22.8798 10.5812 22.8856 10.4333 22.8198C10.235 22.7305 10.0445 22.625 9.85744 22.5147C9.76422 22.4596 9.67407 22.3996 9.58409 22.3398C9.52931 22.3033 9.23496 22.083 9.5298 22.3116C9.16042 22.0253 8.83395 21.6867 8.54143 21.3233C8.77435 21.6127 8.55164 21.3243 8.51337 21.2691C8.45178 21.1801 8.39509 21.0878 8.33848 20.9957C8.22459 20.8105 8.12614 20.6163 8.03334 20.4198C7.87438 20.0835 8.1454 20.7112 8.01118 20.363C7.97158 20.2603 7.9378 20.1555 7.90401 20.0507C7.82424 19.8034 7.76788 19.5491 7.72123 19.2936C7.65225 18.916 7.75352 19.6158 7.71301 19.2314C7.70106 19.1174 7.69558 19.0029 7.69019 18.8886C7.67915 18.6579 7.68794 18.4268 7.7033 18.1966C7.70795 18.1271 7.75875 17.7445 7.70313 18.1318C7.71907 18.0206 7.74132 17.9106 7.76365 17.8006C7.81486 17.5471 7.88982 17.299 7.97366 17.0545C7.9954 16.9912 8.13743 16.6465 7.98852 16.9941C8.03143 16.8939 8.07991 16.7961 8.12822 16.6985C8.22459 16.5041 8.33665 16.3179 8.45344 16.1353C8.51171 16.0442 8.57488 15.9565 8.63797 15.8688C8.42206 16.169 8.63423 15.877 8.67823 15.8243C8.83935 15.6312 9.01756 15.4531 9.20151 15.2819C9.28045 15.2085 9.36321 15.1393 9.44597 15.0704C9.57064 14.9705 9.55786 14.9801 9.4077 15.0992C9.46576 15.0566 9.5246 15.0151 9.58417 14.9747C9.79228 14.8306 10.0129 14.7058 10.2374 14.5894C10.3341 14.5393 10.4336 14.4945 10.533 14.4497C10.1755 14.6107 10.625 14.424 10.6975 14.3991C10.9781 14.3027 11.268 14.2357 11.5596 14.1824C11.9371 14.1134 11.2374 14.2147 11.6218 14.1743C11.7741 14.1583 11.9272 14.1525 12.0801 14.1481C12.3484 14.1404 12.6168 14.1581 12.8835 14.1862C12.4979 14.1457 12.8724 14.1896 12.9431 14.2026C13.0893 14.2292 13.2336 14.2656 13.3774 14.3032C13.5198 14.3405 13.6597 14.387 13.7989 14.4348C13.8679 14.4592 13.9365 14.4848 14.0045 14.5118C13.8264 14.4344 13.8111 14.4287 13.9589 14.4945C14.1902 14.5986 14.4113 14.7237 14.6271 14.8564C14.7192 14.913 14.8082 14.9746 14.8971 15.0362C15.0259 15.1308 15.0144 15.1197 14.8625 15.0028C14.9189 15.0473 14.9745 15.0929 15.0292 15.1394C15.2223 15.3006 15.4005 15.4788 15.5717 15.6627C15.6696 15.768 15.7608 15.8792 15.8509 15.9912C15.6084 15.6897 15.8973 16.0728 15.939 16.1354C16.0794 16.3463 16.2002 16.5694 16.3125 16.7961C16.3428 16.857 16.4837 17.1979 16.3418 16.8491C16.3971 16.9849 16.4434 17.1241 16.4884 17.2637C16.5682 17.511 16.6246 17.7653 16.6712 18.0208C16.6971 18.1858 16.6958 18.1689 16.6675 17.97C16.6761 18.0454 16.6833 18.121 16.6891 18.1968C16.702 18.3497 16.7049 18.5035 16.7064 18.657C16.714 19.4488 17.3615 20.1097 18.159 20.1097C18.9452 20.1097 19.6192 19.4489 19.6117 18.657C19.5915 16.5411 18.691 14.4767 17.0834 13.0849C15.3459 11.5807 13.1489 11.0393 10.8983 11.3627C8.82839 11.6601 6.99541 13.027 5.88651 14.7599C4.7366 16.5568 4.48525 18.9095 5.13637 20.9279C5.67907 22.6102 6.81669 24.018 8.29896 24.9665C9.85204 25.9603 11.6995 26.2093 13.4938 25.9514C17.0181 25.4448 19.5787 22.1235 19.6118 18.657C19.6193 17.8652 18.9453 17.2044 18.1591 17.2044C17.3614 17.2044 16.714 17.8653 16.7064 18.657ZM16.6865 36.4924H3.81903C3.69776 36.4924 3.34207 36.4385 3.69834 36.5002C3.58935 36.4813 3.48393 36.4468 3.37917 36.4124C3.71635 36.5229 3.41014 36.4188 3.33269 36.3759C3.26462 36.3381 2.99858 36.1206 3.27774 36.3523C3.21324 36.2988 2.91475 35.9467 3.14418 36.2506C3.0791 36.1643 3.02656 36.0696 2.97435 35.9755C2.79912 35.6596 3.06939 36.2652 2.956 35.9193C2.93185 35.8456 2.87449 35.4867 2.92147 35.8683C2.9135 35.8035 2.91026 35.7027 2.91026 35.6378V30.7254C2.91026 30.4686 2.92562 30.2131 2.94994 29.9576C2.98987 29.5383 2.89914 30.2571 2.96737 29.8443C2.98771 29.7212 3.01436 29.5991 3.041 29.4771C3.09379 29.2356 3.16493 28.9984 3.24188 28.7637C3.28006 28.6473 3.32414 28.5329 3.36813 28.4185C3.24354 28.7422 3.44077 28.2665 3.46857 28.209C3.57408 27.991 3.69577 27.7813 3.82227 27.5749C3.88536 27.4721 3.95342 27.3725 4.02149 27.2728C4.04855 27.2332 4.29126 26.9137 4.082 27.1807C4.40357 26.7706 4.77752 26.4037 5.17746 26.0706C5.48533 25.8141 4.9413 26.2411 5.26553 26.0051C5.36298 25.9342 5.46392 25.868 5.56469 25.8019C6.22559 25.3689 6.50143 24.524 6.08581 23.8145C5.70115 23.1579 4.76134 22.8589 4.09835 23.2934C2.17963 24.5507 0.769824 26.4609 0.239404 28.7049C-0.0540288 29.9459 0.00482371 31.2231 0.00482371 32.4871V35.6233C0.00482371 37.7071 1.73504 39.3977 3.80725 39.3977H16.6862C17.4781 39.3977 18.1389 38.737 18.1389 37.9451C18.1389 37.1532 17.4783 36.4924 16.6865 36.4924Z" fill="#FFAA88"/>
</svg>
