<svg width="65" height="65" viewBox="0 0 65 65" fill="none" xmlns="http://www.w3.org/2000/svg">
<path d="M10.1228 25.1417L10.2 25.1863L10.1227 25.1417C5.86211 32.5215 2.79882 40.6171 1.53521 47.4058L1.63352 47.4241L1.53521 47.4058C0.903546 50.7996 0.713143 53.8705 1.0996 56.4216C1.48581 58.9711 2.49096 61.1237 4.4114 62.2326C6.33683 63.3442 8.60421 62.9618 10.6597 61.7621L10.6093 61.6757L10.6597 61.7621C12.7131 60.5636 14.7689 58.5637 16.8843 56.0402C20.3597 51.8942 23.9778 46.2625 27.4914 40.3552C27.5987 40.5478 27.6919 40.7416 27.7622 40.9225C27.8511 41.1515 27.9003 41.3518 27.9003 41.4998V60.625C27.9003 62.5305 29.4698 64.1 31.3753 64.1H56.1252C58.0307 64.1 59.6001 62.5305 59.6001 60.625V41.4998C59.6001 41.3653 59.6392 41.1864 59.7117 40.9817C59.7837 40.7785 59.8865 40.5561 60.0087 40.3366C60.2545 39.8953 60.5718 39.4776 60.8622 39.2518C62.8519 37.7054 64.0997 35.757 64.1 33.6248C64.1 30.4334 61.4685 27.8791 57.8002 26.1515C54.1249 24.4205 49.1917 23.3972 43.7503 23.3997C41.2037 23.4009 38.7729 23.6293 36.5267 24.0455C38.005 21.0599 39.2998 18.1848 40.2606 15.5491L40.1667 15.5148L40.2606 15.5491C41.3883 12.4553 42.0923 9.67728 42.1036 7.29971C42.1148 4.91996 41.3116 2.76557 39.3866 1.65382C37.3152 0.431739 34.7415 0.882878 32.7014 1.68939C30.2989 2.63026 27.7334 4.33177 25.1101 6.57558L25.1712 6.64692L25.1101 6.57558C19.8629 11.0641 14.3838 17.7625 10.1228 25.1417ZM38.1592 3.77281L38.1591 3.77284L38.1614 3.77411C38.6811 4.07417 39.0539 4.48119 39.2974 5.04498C39.5422 5.61156 39.6583 6.34132 39.6538 7.28842C39.6449 9.17974 39.0362 11.7553 37.9592 14.7101C36.8543 17.7413 35.2307 21.1934 33.3786 24.7964C32.0556 25.1817 30.8149 25.632 29.7007 26.1566C26.0328 27.8837 23.4009 30.4367 23.4009 33.6255C23.4013 35.4192 24.2896 37.0808 25.7539 38.4837C22.1478 44.5747 18.4401 50.3726 15.0068 54.4681C12.9865 56.8781 11.0591 58.6913 9.42567 59.6448C8.60768 60.1222 7.91786 60.3868 7.30506 60.4583C6.69531 60.5296 6.15664 60.4104 5.63698 60.1103C4.60022 59.5117 3.84831 58.1979 3.52372 56.0554C3.19959 53.9158 3.34624 51.0704 3.94503 47.8533C4.52719 44.7255 5.53552 41.2485 6.88672 37.6796L11.7661 40.497C13.4163 41.4498 15.5598 40.8735 16.5124 39.2234C17.4652 37.5731 16.8912 35.4296 15.2411 34.4768L9.66379 31.256C10.2879 29.9705 10.9546 28.697 11.6541 27.4388L17.391 30.752L17.4376 30.6714L17.391 30.752C19.0412 31.7047 21.1847 31.1308 22.1374 29.4805C23.0901 27.8302 22.5162 25.6867 20.866 24.7339L20.8183 24.8166L20.866 24.7339L15.2992 21.5204C16.1197 20.3158 16.9681 19.1485 17.834 18.0164L23.016 21.0091L23.0626 20.9285L23.016 21.0091C24.6662 21.9618 26.8097 21.3879 27.7624 19.7375C28.7151 18.0873 28.1412 15.9438 26.491 14.991L22.3834 12.6192C23.83 11.0697 25.2813 9.65139 26.7015 8.43652C29.1882 6.30934 31.5792 4.76027 33.5943 3.97118L33.5964 3.97028C34.4067 3.63095 35.2663 3.40749 36.0655 3.35681C36.8656 3.30607 37.5971 3.42889 38.1592 3.77281ZM24.2407 18.8895L19.3592 16.0721C19.8043 15.528 20.2526 14.9985 20.7031 14.4788L25.2656 17.1138L25.3147 17.0288L25.2657 17.1138C25.7743 17.4075 25.9337 18.0042 25.6399 18.513C25.3461 19.022 24.7492 19.1831 24.2407 18.8895L24.2407 18.8895ZM18.6158 28.6322L18.5658 28.7188L18.6158 28.6322L12.8767 25.319C13.2281 24.7309 13.5794 24.145 13.945 23.5689L19.6408 26.8565C20.1495 27.1502 20.3089 27.7469 20.0151 28.2557C19.7212 28.7647 19.1244 28.9258 18.6158 28.6322ZM14.3903 37.9986L14.4769 38.0486L14.3903 37.9986C14.0965 38.5076 13.4996 38.6687 12.9911 38.3751L7.807 35.3824C8.0699 34.7512 8.3445 34.1209 8.62774 33.4884L14.0161 36.5994C14.5247 36.8931 14.6841 37.4898 14.3903 37.9986ZM43.7503 25.8504C48.8825 25.848 53.5112 26.8401 56.7553 28.3677C58.3773 29.1315 59.6034 30.0015 60.4228 30.9042C61.2421 31.8069 61.6505 32.7372 61.6505 33.6254C61.6503 34.7967 60.9668 36.0687 59.3579 37.3192C58.1425 38.2638 57.1506 39.772 57.1506 41.5005V60.6256C57.1506 61.2131 56.7131 61.6506 56.1257 61.6506H31.3758C30.7883 61.6506 30.3508 61.2131 30.3508 60.6256V41.5005C30.3508 39.772 29.359 38.2638 28.1435 37.3192C26.5346 36.0687 25.8512 34.7967 25.8509 33.6254C25.8509 32.7395 26.2593 31.8107 27.0787 30.9091C27.8981 30.0075 29.1242 29.138 30.7461 28.3744C33.9901 26.8468 38.6172 25.8527 43.7503 25.8504Z" fill="#FFAA88" stroke="#FFAA88" stroke-width="0.2"/>
<path d="M36.0524 28.6386L36.0523 28.6386C35.7338 28.7022 35.4536 28.8896 35.2732 29.1597C35.0929 29.4298 35.0272 29.7605 35.0905 30.079L35.0906 30.079C35.1541 30.3976 35.3415 30.6778 35.6116 30.8582C35.8817 31.0385 36.2124 31.1043 36.5309 31.0409L36.5309 31.0409C38.7348 30.6018 41.1745 30.3562 43.7403 30.355C46.3059 30.3539 48.746 30.5984 50.9519 31.0365C51.2704 31.0999 51.6011 31.0341 51.8712 30.8538C52.1413 30.6734 52.3287 30.3932 52.3922 30.0747L52.3922 30.0746C52.4556 29.7561 52.3899 29.4254 52.2095 29.1553C52.0292 28.8852 51.7489 28.6978 51.4304 28.6342L51.4303 28.6342C49.057 28.1629 46.4614 27.9038 43.7402 27.905C41.0192 27.9062 38.4235 28.1662 36.0524 28.6386Z" fill="#FFAA88" stroke="#FFAA88" stroke-width="0.2"/>
</svg>
