<svg width="96" height="59" viewBox="0 0 96 59" fill="none" xmlns="http://www.w3.org/2000/svg">
<path d="M31.2728 56.3636C35.8919 56.3636 39.6365 52.6192 39.6365 48C39.6365 43.3808 35.8919 39.6364 31.2728 39.6364C26.6537 39.6364 22.9092 43.3808 22.9092 48C22.9092 52.6192 26.6537 56.3636 31.2728 56.3636Z" stroke="#FFAA88" stroke-width="4" stroke-miterlimit="1.5" stroke-linecap="round" stroke-linejoin="round"/>
<path d="M73.0912 56.3636C77.7104 56.3636 81.4548 52.6192 81.4548 48C81.4548 43.3808 77.7104 39.6364 73.0912 39.6364C68.4719 39.6364 64.7275 43.3808 64.7275 48C64.7275 52.6192 68.4719 56.3636 73.0912 56.3636Z" stroke="#FFAA88" stroke-width="4" stroke-miterlimit="1.5" stroke-linecap="round" stroke-linejoin="round"/>
<path d="M39.8455 48H60.5455V4.50909C60.5455 3.12336 59.4222 2 58.0364 2H2" stroke="#FFAA88" stroke-width="4" stroke-linecap="round"/>
<path d="M21.4451 48H12.8724C11.4866 48 10.3633 46.8768 10.3633 45.4909V25" stroke="#FFAA88" stroke-width="4" stroke-linecap="round"/>
<path d="M6.18164 14.5455H22.9089" stroke="#FFAA88" stroke-width="4" stroke-linecap="round" stroke-linejoin="round"/>
<path d="M60.5459 14.5455H84.0063C84.9978 14.5455 85.8965 15.1294 86.2992 16.0355L93.7842 32.8769C93.9268 33.1981 94.0004 33.5451 94.0004 33.896V45.4909C94.0004 46.8768 92.8772 48 91.4914 48H83.5459" stroke="#FFAA88" stroke-width="4" stroke-linecap="round"/>
<path d="M60.5459 48H64.7277" stroke="#FFAA88" stroke-width="4" stroke-linecap="round"/>
</svg>
