<svg width="94" height="94" viewBox="0 0 94 94" fill="none" xmlns="http://www.w3.org/2000/svg">
<path d="M40.3655 4.93136C43.9252 1.02288 50.0747 1.02288 53.6344 4.93136L58.2117 9.95748C60.0104 11.9328 62.5961 13.0038 65.2652 12.8791L72.0558 12.5617C77.3362 12.3149 81.6851 16.6635 81.4383 21.9442L81.1207 28.7349C80.996 31.4037 82.0669 33.9893 84.0424 35.7882L89.0684 40.3655C92.9772 43.9252 92.9772 50.0747 89.0684 53.6344L84.0424 58.2117C82.0669 60.0104 80.996 62.5961 81.1207 65.2652L81.4383 72.0558C81.6851 77.3362 77.3362 81.6851 72.0558 81.4383L65.2652 81.1207C62.5961 80.996 60.0104 82.0669 58.2117 84.0424L53.6344 89.0684C50.0747 92.9772 43.9252 92.9772 40.3655 89.0684L35.7882 84.0424C33.9893 82.0669 31.4037 80.996 28.7349 81.1207L21.9442 81.4383C16.6635 81.6851 12.3149 77.3362 12.5617 72.0558L12.8791 65.2652C13.0038 62.5961 11.9328 60.0104 9.95748 58.2117L4.93136 53.6344C1.02288 50.0747 1.02288 43.9252 4.93136 40.3655L9.95748 35.7882C11.9328 33.9893 13.0038 31.4037 12.8791 28.7349L12.5617 21.9442C12.3149 16.6635 16.6635 12.3149 21.9442 12.5617L28.7349 12.8791C31.4037 13.0038 33.9893 11.9328 35.7882 9.95748L40.3655 4.93136Z" stroke="#FFAA88" stroke-width="3.19495"/>
<path d="M33.54 46.9997L42.5134 55.9731L60.4601 38.0264" stroke="#FFAA88" stroke-width="3.19495" stroke-linecap="round" stroke-linejoin="round"/>
</svg>
