<svg width="98" height="98" viewBox="0 0 98 98" fill="none" xmlns="http://www.w3.org/2000/svg">
<path d="M48.9887 5.4053e-06C76.002 -0.0125902 98.0063 21.9894 98 49.0057C97.9937 76.0295 75.9869 98.0239 48.9786 98C21.949 97.9773 -0.0415039 75.9615 5.88194e-05 48.9641C0.0416216 21.9453 21.9855 0.012601 48.9887 5.4053e-06ZM19.1643 81.9179C30.8384 91.808 43.9672 95.4343 58.7899 92.2778C75.0548 88.814 88.2327 75.9111 92.1145 59.3605C95.6271 44.378 91.9457 31.0381 81.9996 19.2574C81.0222 20.2399 80.1394 21.1316 79.2514 22.0184C76.536 24.7352 73.8231 27.4546 71.095 30.1589C70.9288 30.3239 70.6139 30.4977 70.4212 30.4498C68.8066 30.0543 67.2033 29.6085 65.6025 29.1789C69.9262 24.8561 74.2979 20.4867 78.6708 16.1161C69.6529 7.62537 54.5291 1.88305 38.2202 5.94764C22.4528 9.87621 9.60357 22.3408 5.84403 38.768C2.42329 53.7177 6.08333 67.0111 16.0559 78.8068C20.1026 74.7548 24.051 70.8023 27.9101 66.938C28.2035 68.4936 28.4869 70.1133 28.8282 71.7206C28.9164 72.1324 28.8962 72.3906 28.5826 72.7018C25.6896 75.5672 22.8168 78.4542 19.9325 81.3285C19.7411 81.5212 19.5005 81.6635 19.1643 81.9179Z" fill="#FFAA88"/>
<path d="M49.0027 37.7717C40.8954 31.1993 41.0566 18.9098 49.0178 12.5062C57.2472 19.2386 56.8391 31.5256 49.0027 37.7717Z" fill="#FFAA88"/>
<path d="M49.4961 50.269C49.6384 48.2625 49.7001 46.3593 49.9294 44.4763C50.146 42.6852 50.6712 40.9546 51.471 39.3234C53.4962 35.187 56.9383 33.0596 61.3793 32.3807C63.0279 32.1288 64.6791 32.2019 66.3252 32.4802C66.7736 32.5558 66.8958 32.7322 66.9046 33.1692C67.0104 38.5274 65.0229 42.8326 60.5656 45.921C57.2897 48.1907 53.6713 49.5813 49.4961 50.269Z" fill="#FFAA88"/>
<path d="M66.8913 65.2968C67.0978 70.6839 65.361 75.1 60.9579 78.3081C57.6618 80.7075 53.9766 82.1648 49.9777 82.8664C49.8971 82.8803 49.8115 82.8677 49.6301 82.8677C49.6301 81.8688 49.5898 80.8725 49.6377 79.88C49.7649 77.2236 50.2473 74.639 51.3745 72.2068C53.2562 68.1485 56.5396 65.9442 60.8395 65.1343C62.837 64.7577 64.8383 64.7993 66.8913 65.2968Z" fill="#FFAA88"/>
<path d="M48.3402 50.2577C43.257 49.3382 38.6926 47.5156 35.0414 43.8906C32.0363 40.9067 30.967 37.1419 31.1231 32.9828C31.1294 32.8229 31.3398 32.5546 31.4871 32.5306C36.7266 31.6716 41.3866 32.7145 44.9837 36.8812C46.713 38.8839 47.5694 41.3413 47.9573 43.9158C48.2369 45.7724 48.2533 47.668 48.3792 49.546C48.3931 49.7526 48.3591 49.9592 48.3402 50.2577Z" fill="#FFAA88"/>
<path d="M49.5566 66.5412C49.6247 64.9794 49.6297 63.4717 49.7695 61.9766C49.9861 59.6666 50.5466 57.4334 51.6222 55.3589C53.6222 51.5009 56.9082 49.4629 61.101 48.7588C62.8517 48.4653 64.6087 48.522 66.3619 48.823C66.7939 48.8973 66.8933 49.08 66.9034 49.4793C67.0495 55.4244 64.5469 59.8996 59.4801 62.9805C56.6362 64.7086 53.5769 65.856 50.3136 66.4745C50.1121 66.5135 49.9043 66.5123 49.5566 66.5412Z" fill="#FFAA88"/>
<path d="M48.3145 82.9482C47.2918 82.714 46.288 82.5301 45.3107 82.253C41.3408 81.1269 37.7223 79.3434 34.8142 76.3456C32.1705 73.6212 30.6743 69.0049 31.1869 65.1608C32.4287 65.0764 33.7134 64.8912 34.993 64.9227C38.3269 65.0046 41.3219 66.0651 43.832 68.3185C45.9417 70.2116 47.045 72.6765 47.7213 75.3632C48.3145 77.7186 48.4707 80.118 48.3712 82.5389C48.3674 82.6396 48.3435 82.7404 48.3145 82.9482Z" fill="#FFAA88"/>
<path d="M48.294 66.6647C46.8141 66.2692 45.3657 65.9467 43.9601 65.4907C40.96 64.5209 38.2005 63.0749 35.8251 60.9828C32.3188 57.8943 30.9736 53.9104 31.1021 49.3331C31.1122 48.9628 31.2998 48.8973 31.6021 48.8432C37.9322 47.6995 45.7334 50.1644 47.7411 59.096C48.2902 61.5408 48.5585 64.7035 48.294 66.6647Z" fill="#FFAA88"/>
</svg>
