<svg width="93" height="68" viewBox="0 0 93 68" fill="none" xmlns="http://www.w3.org/2000/svg">
<path d="M35.7367 4.8636C35.7 4.54285 35.6098 4.20372 35.6338 3.87166C35.6775 3.27113 35.7226 2.65506 35.8889 2.08137C36.089 1.39041 36.5034 1.28726 37.0925 1.62073C36.8713 2.21843 36.6542 2.80766 36.4357 3.3983C36.5034 3.43928 36.5725 3.48026 36.6401 3.52124C36.8529 3.28244 37.1038 3.06624 37.2715 2.79918C38.0679 1.53171 39.2518 0.902917 40.688 0.758789C41.9564 0.631618 43.2376 0.642922 44.5046 0.50586C45.2249 0.428144 45.9267 0.17804 46.6582 0C46.6737 1.29008 46.1847 2.47278 44.9937 3.28667C43.6562 4.2009 42.1636 4.44535 40.5822 4.12742C39.6309 3.93666 38.6852 3.72047 37.676 3.50145C38.1848 3.05635 38.7571 2.84299 39.3899 2.83027C39.9748 2.81755 40.5639 2.84864 41.1474 2.89668C42.2707 2.98712 43.3813 2.96451 44.4173 2.46713C44.7936 2.28626 45.1191 1.99518 45.4292 1.68573C43.6534 2.58299 41.7958 2.6819 39.8705 2.51517C38.6091 2.40495 37.521 2.87266 36.7768 3.96634C36.4329 4.47078 36.5809 4.80284 37.1616 4.89751C38.9671 5.19142 40.1651 6.21586 40.7486 7.94963C40.8839 8.35234 41.0008 8.76776 41.06 9.18743C41.3025 10.8873 41.9649 12.4176 42.8528 13.8702C43.6477 15.1701 44.4046 16.4941 44.7245 18.0089C45.6322 22.303 42.671 26.7272 38.2144 27.5552C34.9178 28.1671 32.0821 27.1511 30.0342 24.4593C28.0399 21.8382 27.7354 18.9372 29.1815 15.9261C29.5494 15.1602 29.9792 14.4198 30.4274 13.6978C31.3802 12.1618 32.0426 10.5298 32.2808 8.72396C32.5387 6.77258 33.6395 5.52489 35.5309 4.98229C35.5887 4.9611 35.638 4.92012 35.7367 4.8636ZM36.6147 26.7498C41.1784 26.7569 44.7823 22.4613 43.7238 18.112C43.4053 16.8036 42.6724 15.5757 42.0114 14.376C41.1756 12.8542 40.4343 11.3154 40.1453 9.58449C40.065 9.10547 39.9579 8.62646 39.8071 8.16582C39.2926 6.59313 37.8395 5.61674 36.2765 5.76369C34.6712 5.91347 33.4168 7.21062 33.1617 8.85678C33.0207 9.77242 32.8601 10.7234 32.4838 11.5571C31.803 13.0662 30.9827 14.5159 30.1737 15.9643C27.3493 21.0313 31.2914 26.8558 36.6147 26.7498Z" fill="#FDF9F7"/>
<path d="M32.2993 19.0023C32.4501 17.3561 33.1562 15.6435 34.6869 14.3704C35.6565 13.565 36.7784 13.4505 37.9299 14.0171C39.951 15.0105 41.4253 18.1262 40.9207 20.3263C40.3781 22.6931 38.3598 24.0821 35.8849 23.7966C33.8595 23.5621 32.319 21.6375 32.2993 19.0023ZM33.2479 19.1407C33.2944 21.2334 34.4614 22.6337 36.1653 22.8499C37.8552 23.0633 39.4831 21.9823 39.9271 20.3517C40.4119 18.5699 39.2703 15.8611 37.6551 14.9568C36.8235 14.4919 35.9934 14.5216 35.2788 15.1363C33.9963 16.237 33.4015 17.691 33.2479 19.1407Z" fill="#FDF9F7"/>
<path d="M38.9901 19.4388C38.9746 20.3785 38.6321 21.157 37.9246 21.7406C37.7597 21.8763 37.4369 21.8197 37.186 21.8522C37.2269 21.6078 37.1818 21.2701 37.3256 21.1344C38.0556 20.442 38.205 19.6253 37.9852 18.6927C37.957 18.5754 37.8893 18.4398 37.9232 18.3409C37.9809 18.1699 38.0951 17.9 38.2022 17.893C38.3728 17.8802 38.6687 18.0088 38.7152 18.1459C38.8562 18.5585 38.9055 19.005 38.9901 19.4388Z" fill="#FDF9F7"/>
<path d="M54.4176 27.4308C50.1288 27.9056 46.1401 23.6736 47.0224 18.7507C47.4988 16.0928 48.4332 13.6497 49.9202 11.403C51.2831 9.3442 52.6995 7.32501 54.2231 5.38635C55.4451 3.83203 57.0222 2.83444 59.0179 2.58434C62.619 2.13359 66.3582 5.18711 66.6795 8.81291C66.9191 11.5202 66.2144 14.0326 65.1362 16.4602C63.762 19.549 62.0848 22.4443 59.5859 24.7871C58.4908 25.8129 57.2534 26.5943 55.8383 27.0945C55.3633 27.2047 54.8912 27.3178 54.4176 27.4308ZM60.4851 20.7105C62.7952 17.6626 64.5724 14.3576 65.311 10.5622C65.817 7.96793 64.6373 5.64069 62.2413 4.4368C59.9045 3.26258 57.2364 3.69779 55.5945 5.69297C53.3986 8.35933 51.355 11.1486 49.7355 14.2163C48.8152 15.9599 48.1654 17.8506 48.2528 19.8118C48.3811 22.6732 51.6552 26.2947 55.8341 24.5101C57.7932 23.7485 59.2745 22.3948 60.4851 20.7105Z" fill="#FDF9F7"/>
<path d="M51.548 6.53089C51.0942 6.53513 50.763 6.02785 51.0223 5.6308C52.1611 3.8829 53.4719 2.29608 55.3393 1.2674C55.7044 1.06676 56.03 1.10632 56.2414 1.48218C56.4387 1.83402 56.3006 2.13782 55.9764 2.31869C54.3499 3.22726 53.2055 4.61625 52.171 6.11687C52.0145 6.34154 51.8285 6.50404 51.548 6.53089Z" fill="#FDF9F7"/>
<path d="M50.1581 7.20361C50.4597 7.25589 50.7218 7.376 50.7557 7.75328C50.7923 8.16023 50.2215 8.94586 49.855 8.96564C49.4675 8.98684 49.2335 8.78902 49.2011 8.3962C49.1672 7.97795 49.7705 7.22198 50.1581 7.20361Z" fill="#FDF9F7"/>
<path d="M53.1758 10.6668C55.9594 10.6541 59.8071 13.3685 60.6922 15.9684C60.8219 16.3499 60.8797 16.7357 60.4512 16.949C60.058 17.1454 59.7761 16.9505 59.6182 16.5661C58.4879 13.8023 56.2004 12.5871 53.4774 11.9526C53.2956 11.9102 53.1082 11.8834 52.932 11.8269C52.598 11.7195 52.419 11.4821 52.4908 11.1302C52.5655 10.7756 52.8277 10.6442 53.1758 10.6668Z" fill="#FDF9F7"/>
<path d="M56.8632 5.84564C59.1662 6.13955 61.1901 7.01562 62.818 8.7183C62.9152 8.82004 63.0139 8.92178 63.1027 9.03058C63.369 9.35699 63.4748 9.72437 63.1294 10.0324C62.77 10.3546 62.4332 10.1751 62.1682 9.84306C61.4325 8.92037 60.4798 8.29581 59.4255 7.80691C58.6968 7.46779 57.9301 7.26572 57.1409 7.13431C56.9788 7.10747 56.8181 7.07779 56.656 7.05518C56.2078 6.9916 55.8639 6.81215 55.9767 6.28509C56.0796 5.79619 56.4545 5.76793 56.8632 5.84564Z" fill="#FDF9F7"/>
<path d="M50.2939 16.2397C53.1959 16.4022 54.9929 17.9763 56.3953 20.1453C56.618 20.4901 56.6039 20.8476 56.2276 21.0595C55.8653 21.263 55.551 21.1161 55.3326 20.7656C54.8055 19.9207 54.167 19.1788 53.3693 18.5769C52.4828 17.9085 51.5046 17.5002 50.3855 17.486C49.9331 17.4804 49.5498 17.3659 49.5892 16.8346C49.6273 16.3217 50.0473 16.2468 50.2939 16.2397Z" fill="#FDF9F7"/>
<path d="M30.7396 27.8674C30.6776 28.3181 30.1293 28.5739 29.7756 28.2602C28.2153 26.8783 26.8369 25.3494 26.0914 23.3486C25.9462 22.9572 26.0322 22.6407 26.4338 22.4852C26.8102 22.3397 27.0892 22.522 27.2217 22.8696C27.8841 24.6146 29.0906 25.9499 30.4211 27.1934C30.6198 27.3785 30.7537 27.5862 30.7396 27.8674Z" fill="#FDF9F7"/>
<path d="M31.2032 29.3426C31.2977 29.0501 31.4541 28.8085 31.8332 28.8283C32.2392 28.8495 32.9326 29.5291 32.9002 29.8965C32.8649 30.2851 32.6366 30.4886 32.2434 30.4631C31.8248 30.4377 31.1652 29.7298 31.2032 29.3426Z" fill="#FDF9F7"/>
<path d="M0 52.6375L3.73636 48.7051C4.53267 49.4173 5.29235 49.9471 6.01679 50.2933C6.74123 50.6395 7.48681 50.8133 8.25494 50.8133C9.40079 50.8133 9.97442 50.4912 9.97442 49.844C9.97442 49.6448 9.92509 49.4639 9.82502 49.3028C9.72496 49.1417 9.46703 48.9496 9.05126 48.7263C8.63407 48.503 7.98574 48.2586 7.10486 47.9929C5.58974 47.5182 4.26489 46.7862 3.13313 45.7985C2.00137 44.8108 1.43478 43.3964 1.43478 41.5538C1.43478 40.4898 1.66029 39.5021 2.10989 38.5907C2.5595 37.6793 3.2938 36.9389 4.31281 36.3681C5.3304 35.7986 6.65102 35.5132 8.27044 35.5132C9.84335 35.5132 11.2302 35.7647 12.4338 36.2677C13.6361 36.7708 14.7552 37.4985 15.7868 38.4466L12.4761 42.5345C12.0124 42.1077 11.4177 41.7276 10.6932 41.3942C9.96878 41.0621 9.24575 40.8954 8.52695 40.8954C8.09144 40.8954 7.78983 40.9717 7.62493 41.1229C7.45862 41.2755 7.37687 41.4931 7.37687 41.7785C7.37687 41.9212 7.45016 42.0498 7.59674 42.1628C7.74332 42.2773 7.96178 42.3974 8.25071 42.526C8.53964 42.6546 9.00615 42.8425 9.65026 43.0884L10.0618 43.2452C11.3881 43.7398 12.4818 44.2739 13.3443 44.8476C14.2069 45.4227 14.8623 46.108 15.3119 46.9063C15.7615 47.7047 15.987 48.6542 15.987 49.755C15.987 51.0465 15.6811 52.1868 15.0709 53.1745C14.4606 54.1622 13.5811 54.9323 12.4353 55.4819C11.2894 56.033 9.94905 56.3085 8.4142 56.3085C5.17255 56.3128 2.36782 55.0877 0 52.6375Z" fill="#FDF9F7"/>
<path d="M23.0043 54.9097C21.4131 53.9743 20.1601 52.7082 19.2454 51.1129C18.3307 49.5176 17.874 47.7754 17.874 45.8848C17.874 43.9857 18.3307 42.2448 19.2454 40.6637C20.1601 39.0825 21.4131 37.8306 23.0043 36.9093C24.5955 35.988 26.3629 35.5273 28.3051 35.5273C30.2275 35.5273 31.9823 35.988 33.5693 36.9093C35.1563 37.8306 36.4064 39.0825 37.3211 40.6637C38.2358 42.2448 38.6925 43.9857 38.6925 45.8848C38.6925 47.7754 38.2358 49.5176 37.3211 51.1129C36.4064 52.7082 35.1563 53.9743 33.5693 54.9097C31.9823 55.8451 30.2275 56.3128 28.3051 56.3128C26.3629 56.3128 24.5955 55.8451 23.0043 54.9097ZM30.4643 49.9882C31.1366 49.5699 31.675 49.0033 32.0767 48.2855C32.4798 47.5691 32.6813 46.7735 32.6813 45.8989C32.6813 45.0341 32.477 44.2442 32.071 43.5264C31.6637 42.81 31.1239 42.2448 30.4516 41.8308C29.7793 41.4182 29.0634 41.2105 28.3065 41.2105C27.5384 41.2105 26.8168 41.4168 26.1388 41.8308C25.4609 42.2434 24.9169 42.8086 24.5053 43.5264C24.0938 44.2442 23.8866 45.0341 23.8866 45.8989C23.8866 46.7636 24.0924 47.5563 24.5053 48.2784C24.9169 49.0005 25.4623 49.5699 26.1388 49.9882C26.8168 50.4064 27.5384 50.6155 28.3065 50.6155C29.0718 50.6141 29.792 50.405 30.4643 49.9882Z" fill="#FDF9F7"/>
<path d="M50.997 55.9426H45.0718V48.5638L38.0952 35.9272H44.9436L48.0837 43.022L51.0956 35.9272H57.9736L50.997 48.52V55.9426Z" fill="#FDF9F7"/>
<path d="M73.4473 55.9426H59.8774V35.9272H65.8026V50.2581H73.4473V55.9426Z" fill="#FDF9F7"/>
<path d="M79.5925 55.3293C78.2803 54.627 77.2782 53.6605 76.5876 52.4298C75.8956 51.2005 75.5503 49.8058 75.5503 48.2487V35.9258H81.4755V47.3656C81.4755 48.4197 81.7235 49.2647 82.2211 49.9005C82.7186 50.5364 83.3937 50.8557 84.2464 50.8557C84.8144 50.8557 85.3119 50.7116 85.739 50.4205C86.1646 50.1308 86.4916 49.7225 86.7199 49.1954C86.9468 48.6684 87.061 48.0579 87.061 47.3656V35.9258H93.0002V48.2487C93.0002 49.8058 92.6521 51.2005 91.9559 52.4298C91.2596 53.6605 90.2533 54.6256 88.9369 55.3293C87.6205 56.0316 86.0575 56.3834 84.2478 56.3834C82.455 56.3834 80.9047 56.033 79.5925 55.3293Z" fill="#FDF9F7"/>
<path d="M20.0995 67.4093C20.4758 67.2694 20.8254 67.0814 21.1453 66.8455V64.6256C21.1453 64.5719 21.158 64.531 21.182 64.5013C21.2059 64.4716 21.244 64.4561 21.2933 64.4561C21.3877 64.4561 21.4356 64.5126 21.4356 64.6256V66.8723C21.4356 66.943 21.4131 66.9995 21.3666 67.0419C21.0424 67.3104 20.6675 67.5223 20.2405 67.6777C19.8134 67.8332 19.3793 67.9109 18.9353 67.9109C18.2335 67.9109 17.5851 67.7385 16.9904 67.3937C16.3942 67.049 15.9234 66.5827 15.5767 65.992C15.23 65.4028 15.0566 64.7556 15.0566 64.0519C15.0566 63.3454 15.23 62.6969 15.5767 62.1048C15.9234 61.5128 16.3956 61.045 16.9904 60.7003C17.5851 60.3555 18.2335 60.1831 18.9353 60.1831C19.3864 60.1831 19.8148 60.2594 20.2221 60.4134C20.6295 60.5674 21.0015 60.7836 21.3398 61.062C21.3934 61.1115 21.4187 61.1567 21.4187 61.1991C21.4187 61.2344 21.4103 61.2612 21.392 61.2782L21.3863 61.2838C21.3539 61.3163 21.3173 61.3319 21.275 61.3319C21.2355 61.3319 21.1975 61.3178 21.1594 61.2895C20.4688 60.7596 19.7274 60.4954 18.9339 60.4954C18.2814 60.4954 17.6824 60.6522 17.1341 60.9673C16.5859 61.2824 16.1532 61.7106 15.8332 62.2546C15.5147 62.7986 15.3554 63.3977 15.3554 64.0505C15.3554 64.7005 15.5147 65.2982 15.8332 65.8436C16.1518 66.3891 16.5859 66.8215 17.1341 67.1394C17.6824 67.4573 18.2814 67.617 18.9339 67.617C19.3356 67.6184 19.7232 67.5492 20.0995 67.4093Z" fill="#FDF9F7"/>
<path d="M22.9293 59.4879C22.9519 59.454 22.9885 59.437 23.0379 59.437H23.0435C23.0928 59.437 23.1295 59.454 23.152 59.4879C23.1746 59.5218 23.1858 59.5642 23.1858 59.6179V67.6509C23.1858 67.7046 23.1746 67.7455 23.152 67.778C23.1295 67.8105 23.0928 67.8261 23.0435 67.8261H23.0379C22.9885 67.8261 22.9519 67.8105 22.9293 67.778C22.9068 67.747 22.8955 67.7046 22.8955 67.6509V59.6179C22.8955 59.5642 22.9068 59.5204 22.9293 59.4879Z" fill="#FDF9F7"/>
<path d="M30.4429 61.3291H30.4486C30.5402 61.3291 30.5867 61.3842 30.5867 61.493V67.6552C30.5867 67.7682 30.5402 67.8247 30.4486 67.8247H30.4429C30.3513 67.8247 30.3062 67.7682 30.3062 67.6552L30.295 66.5954C30.1329 66.878 29.9201 67.1267 29.6551 67.3401C29.3901 67.5534 29.104 67.7173 28.7939 67.8304C28.4839 67.9434 28.1822 67.9999 27.8905 67.9999C27.3408 67.9999 26.8503 67.8643 26.4219 67.5944C25.992 67.3245 25.6594 66.967 25.4226 66.5233C25.1858 66.0797 25.0688 65.6091 25.0688 65.1117V61.493C25.0688 61.3842 25.114 61.3291 25.207 61.3291H25.2126C25.3113 61.3291 25.3606 61.3842 25.3606 61.493V65.1117C25.3606 65.6134 25.4748 66.0627 25.7045 66.4583C25.9328 66.854 26.2415 67.1606 26.6263 67.3796C27.0124 67.5987 27.4282 67.7089 27.8764 67.7089C28.2499 67.7089 28.6248 67.6142 28.9997 67.4234C29.3746 67.2327 29.6847 66.9628 29.9299 66.6152C30.1752 66.2676 30.2978 65.8691 30.2978 65.4198V61.493C30.295 61.3842 30.3443 61.3291 30.4429 61.3291Z" fill="#FDF9F7"/>
<path d="M33.8087 61.9056C33.896 61.9056 33.9411 61.9494 33.9411 62.0384V62.0441C33.9411 62.0752 33.9285 62.1048 33.9045 62.1317C33.8805 62.1585 33.8481 62.1712 33.8101 62.1712H32.5782V66.7282C32.5782 66.9444 32.636 67.1337 32.7502 67.2977C32.8643 67.4616 33.0504 67.5435 33.3083 67.5435H33.5141C33.6437 67.5435 33.71 67.5845 33.71 67.665V67.6763C33.71 67.7004 33.7001 67.7315 33.6804 67.7696C33.6607 67.8063 33.6156 67.8247 33.5451 67.8247C33.3407 67.8247 33.1956 67.8176 33.111 67.8035C32.8432 67.7611 32.6388 67.6424 32.4979 67.4488C32.357 67.2539 32.2865 67.0207 32.2865 66.7494V62.1712H31.4253C31.3267 62.1712 31.2773 62.1274 31.2773 62.0384C31.2773 61.9508 31.3267 61.9056 31.4253 61.9056H32.2865V60.1944C32.2865 60.0856 32.3316 60.0305 32.4232 60.0305H32.4288C32.5275 60.0305 32.5768 60.0856 32.5768 60.1944V61.9056H33.8087Z" fill="#FDF9F7"/>
<path d="M34.9715 64.6354C34.9715 65.1794 35.1082 65.6852 35.3816 66.153C35.6551 66.6207 36.0243 66.9937 36.4894 67.2706C36.9545 67.5476 37.4605 67.6861 38.006 67.6861C38.34 67.6861 38.636 67.6465 38.8939 67.5688C39.1504 67.4911 39.3646 67.3992 39.5366 67.2933C39.7071 67.1873 39.8932 67.0545 40.0947 66.8962C40.1328 66.8651 40.175 66.8482 40.2216 66.8482C40.254 66.8482 40.2793 66.8595 40.3005 66.8807L40.3104 66.892C40.3315 66.9132 40.3428 66.94 40.3428 66.9711C40.3428 67.0205 40.3216 67.0643 40.2793 67.1039C39.9693 67.3696 39.6282 67.5787 39.2561 67.7341C38.884 67.8895 38.4682 67.9673 38.006 67.9673C37.407 67.9673 36.8531 67.8175 36.3443 67.5165C35.8355 67.217 35.431 66.8114 35.1308 66.2999C34.832 65.7898 34.6812 65.2345 34.6812 64.634C34.6812 64.0334 34.8305 63.4739 35.1308 62.9567C35.431 62.4395 35.8341 62.0269 36.3414 61.7217C36.8488 61.4165 37.3999 61.2639 37.9961 61.2639C38.612 61.2639 39.1786 61.4222 39.693 61.7387C40.2075 62.0552 40.612 62.4579 40.9079 62.9496C41.2039 63.4414 41.3519 63.9331 41.3519 64.4277V64.4489C41.3519 64.5435 41.3026 64.5916 41.2039 64.5916H34.9729V64.6354H34.9715ZM36.5782 61.928C36.1371 62.1753 35.7763 62.5088 35.4944 62.9299C35.2125 63.3509 35.0434 63.8102 34.987 64.3076H41.0602C41.032 63.8907 40.8826 63.4682 40.6106 63.0415C40.3385 62.6148 39.9749 62.2601 39.5168 61.9789C39.0588 61.6977 38.5514 61.5578 37.9947 61.5578C37.4915 61.5564 37.0194 61.6808 36.5782 61.928Z" fill="#FDF9F7"/>
<path d="M42.9475 67.8246H42.9418C42.8502 67.8246 42.8037 67.7695 42.8037 67.6607V61.4985C42.8037 61.3855 42.8488 61.329 42.9418 61.329H42.9475C43.0391 61.329 43.0856 61.3855 43.0856 61.4985L43.0955 62.7123C43.2533 62.4085 43.4647 62.1457 43.7269 61.9224C43.989 61.7006 44.2737 61.531 44.5782 61.4137C44.8826 61.2965 45.18 61.2385 45.4689 61.2385C46.0115 61.2385 46.4865 61.3685 46.8952 61.6299C47.304 61.8913 47.6169 62.2319 47.8353 62.653C48.0538 63.0726 48.1637 63.5149 48.1637 63.9784V67.6607C48.1637 67.7695 48.1172 67.8246 48.0256 67.8246H48.0199C47.9213 67.8246 47.872 67.7695 47.872 67.6607V63.9784C47.872 63.5785 47.7719 63.1899 47.5732 62.8126C47.3744 62.4354 47.0911 62.1259 46.7247 61.8885C46.3582 61.6497 45.9354 61.531 45.4562 61.531C45.118 61.531 44.7642 61.6257 44.3963 61.8164C44.0285 62.0072 43.7184 62.2827 43.469 62.6431C43.2181 63.0034 43.094 63.4259 43.094 63.9091V67.6607C43.0955 67.7695 43.0461 67.8246 42.9475 67.8246Z" fill="#FDF9F7"/>
<path d="M52.9416 60.2637H57.883C57.9704 60.2637 58.0155 60.3117 58.0155 60.4064V60.412C58.0155 60.5109 57.9718 60.5604 57.883 60.5604H53.084V64.0308H56.9739C57.0656 64.0308 57.1107 64.0788 57.1107 64.1735V64.1791C57.1107 64.278 57.0641 64.3275 56.9739 64.3275H53.084V67.6764C53.084 67.7753 53.0375 67.8247 52.9458 67.8247H52.9402C52.8458 67.8247 52.7979 67.7753 52.7979 67.6764V60.4064C52.7993 60.3117 52.8472 60.2637 52.9416 60.2637Z" fill="#FDF9F7"/>
<path d="M59.1785 61.3291H59.1841C59.2757 61.3291 59.3222 61.3842 59.3222 61.493V62.8439C59.4491 62.5302 59.6422 62.2645 59.9029 62.0497C60.1637 61.835 60.4498 61.6739 60.7598 61.5707C61.0699 61.4662 61.3687 61.4139 61.6591 61.4139C61.9015 61.4139 62.1594 61.4619 62.43 61.5594C62.7006 61.6569 62.9318 61.77 63.1192 61.9014C63.3081 62.0314 63.4025 62.1402 63.4025 62.225C63.4025 62.2532 63.3955 62.2744 63.3814 62.2885L63.3757 62.2942C63.3433 62.3338 63.3052 62.3521 63.2587 62.3521C63.2193 62.3521 63.1826 62.3366 63.1474 62.3041C62.6682 61.9056 62.1763 61.705 61.6731 61.705C61.3095 61.705 60.9487 61.7912 60.5893 61.9621C60.2299 62.1331 59.9297 62.4086 59.6887 62.7887C59.4477 63.1688 59.3265 63.6493 59.3265 64.2328V67.6552C59.3265 67.7682 59.2786 67.8247 59.1841 67.8247H59.1785C59.0841 67.8247 59.0361 67.7682 59.0361 67.6552V61.493C59.0361 61.3842 59.0841 61.3291 59.1785 61.3291Z" fill="#FDF9F7"/>
<path d="M63.887 64.6354C63.887 65.1794 64.0237 65.6852 64.2972 66.153C64.5706 66.6207 64.9398 66.9937 65.405 67.2706C65.8701 67.5476 66.376 67.6861 66.9215 67.6861C67.2555 67.6861 67.5515 67.6465 67.8094 67.5688C68.0659 67.4911 68.2802 67.3992 68.4521 67.2933C68.6226 67.1873 68.8087 67.0545 69.0102 66.8962C69.0483 66.8651 69.0906 66.8482 69.1371 66.8482C69.1695 66.8482 69.1949 66.8595 69.216 66.8807L69.2259 66.892C69.247 66.9132 69.2583 66.94 69.2583 66.9711C69.2583 67.0205 69.2372 67.0643 69.1949 67.1039C68.8848 67.3696 68.5437 67.5787 68.1716 67.7341C67.7995 67.8895 67.3838 67.9673 66.9215 67.9673C66.3225 67.9673 65.7686 67.8175 65.2598 67.5165C64.751 67.217 64.3465 66.8114 64.0463 66.2999C63.7475 65.7898 63.5967 65.2345 63.5967 64.634C63.5967 64.0334 63.7461 63.4739 64.0463 62.9567C64.3465 62.4395 64.7496 62.0269 65.257 61.7217C65.7644 61.4165 66.3154 61.2639 66.9116 61.2639C67.5275 61.2639 68.0941 61.4222 68.6086 61.7387C69.123 62.0552 69.5275 62.4579 69.8235 62.9496C70.1194 63.4414 70.2674 63.9331 70.2674 64.4277V64.4489C70.2674 64.5435 70.2181 64.5916 70.1194 64.5916H63.8884V64.6354H63.887ZM65.4937 61.928C65.0526 62.1753 64.6918 62.5088 64.4099 62.9299C64.128 63.3509 63.9589 63.8102 63.9025 64.3076H69.9757C69.9475 63.8907 69.7981 63.4682 69.5261 63.0415C69.2541 62.6148 68.8904 62.2601 68.4324 61.9789C67.9743 61.6977 67.4669 61.5578 66.9102 61.5578C66.407 61.5564 65.9349 61.6808 65.4937 61.928Z" fill="#FDF9F7"/>
<path d="M71.5613 64.6354C71.5613 65.1794 71.698 65.6852 71.9715 66.153C72.2449 66.6207 72.6142 66.9937 73.0793 67.2706C73.5444 67.5476 74.0504 67.6861 74.5958 67.6861C74.9298 67.6861 75.2258 67.6465 75.4837 67.5688C75.7402 67.4911 75.9545 67.3992 76.1264 67.2933C76.297 67.1873 76.483 67.0545 76.6846 66.8962C76.7226 66.8651 76.7649 66.8482 76.8114 66.8482C76.8438 66.8482 76.8692 66.8595 76.8903 66.8807L76.9002 66.892C76.9213 66.9132 76.9326 66.94 76.9326 66.9711C76.9326 67.0205 76.9115 67.0643 76.8692 67.1039C76.5591 67.3696 76.218 67.5787 75.846 67.7341C75.4739 67.8895 75.0581 67.9673 74.5958 67.9673C73.9968 67.9673 73.4429 67.8175 72.9341 67.5165C72.4253 67.217 72.0208 66.8114 71.7206 66.2999C71.4218 65.7898 71.271 65.2345 71.271 64.634C71.271 64.0334 71.4204 63.4739 71.7206 62.9567C72.0208 62.4395 72.4239 62.0269 72.9313 61.7217C73.4387 61.4165 73.9898 61.2639 74.5859 61.2639C75.2019 61.2639 75.7684 61.4222 76.2829 61.7387C76.7973 62.0552 77.2018 62.4579 77.4978 62.9496C77.7938 63.4414 77.9418 63.9331 77.9418 64.4277V64.4489C77.9418 64.5435 77.8924 64.5916 77.7938 64.5916H71.5627V64.6354H71.5613ZM73.1681 61.928C72.7269 62.1753 72.3661 62.5088 72.0842 62.9299C71.8023 63.3509 71.6332 63.8102 71.5768 64.3076H77.65C77.6218 63.8907 77.4724 63.4682 77.2004 63.0415C76.9284 62.6148 76.5648 62.2601 76.1067 61.9789C75.6486 61.6977 75.1412 61.5578 74.5845 61.5578C74.0814 61.5564 73.6092 61.6808 73.1681 61.928Z" fill="#FDF9F7"/>
</svg>
