<svg width="173" height="126" viewBox="0 0 173 126" fill="none" xmlns="http://www.w3.org/2000/svg">
<path d="M66.4781 9.01197C66.4099 8.41763 66.2421 7.78925 66.2867 7.17396C66.368 6.06121 66.4519 4.91966 66.7612 3.85666C67.1335 2.57634 67.9043 2.38521 69.0003 3.00312C68.5886 4.11063 68.1849 5.20243 67.7785 6.29685C67.9043 6.37278 68.0328 6.44871 68.1587 6.52464C68.5546 6.08216 69.0212 5.68157 69.3332 5.18672C70.8146 2.83817 73.0169 1.67305 75.6885 1.40599C78.0481 1.17035 80.4314 1.1913 82.7884 0.937328C84.1281 0.793325 85.4338 0.329898 86.7945 0C86.8233 2.39045 85.9136 4.58191 83.6981 6.09001C81.21 7.78401 78.4335 8.23697 75.4919 7.64786C73.7221 7.2944 71.9629 6.89381 70.0857 6.48799C71.0322 5.66324 72.0966 5.26789 73.2738 5.24433C74.3619 5.22076 75.4578 5.27836 76.5432 5.36738C78.6328 5.53495 80.6988 5.49306 82.6258 4.57144C83.3258 4.2363 83.9315 3.69695 84.5083 3.12355C81.2048 4.78613 77.7493 4.96941 74.1679 4.66046C71.8213 4.45624 69.7973 5.32287 68.413 7.34939C67.7733 8.2841 68.0485 8.89938 69.1287 9.0748C72.4873 9.6194 74.7158 11.5176 75.8012 14.7302C76.0529 15.4764 76.2705 16.2461 76.3807 17.0238C76.8316 20.1735 78.0639 23.009 79.7156 25.7006C81.1943 28.1094 82.6022 30.5627 83.1974 33.3694C84.8858 41.3262 79.3774 49.5239 71.0872 51.0582C64.9548 52.1919 59.6797 50.3094 55.8702 45.3217C52.1604 40.4648 51.594 35.0896 54.284 29.5101C54.9683 28.091 55.768 26.7191 56.6017 25.3812C58.3741 22.5351 59.6063 19.5111 60.0494 16.165C60.5292 12.5492 62.5768 10.2373 66.0953 9.2319C66.2028 9.19262 66.2945 9.1167 66.4781 9.01197ZM68.1115 49.5658C76.6009 49.5789 83.3049 41.6195 81.3359 33.5605C80.7434 31.1361 79.38 28.8608 78.1504 26.6379C76.5956 23.8181 75.2166 20.9668 74.6791 17.7595C74.5297 16.8719 74.3304 15.9843 74.0499 15.1308C73.0929 12.2167 70.3898 10.4075 67.4822 10.6798C64.496 10.9573 62.1626 13.3609 61.688 16.4111C61.4258 18.1077 61.127 19.8698 60.4269 21.4145C59.1606 24.2108 57.6347 26.8971 56.1298 29.5808C50.8757 38.9698 58.2089 49.7622 68.1115 49.5658Z" fill="black"/>
<path d="M60.084 35.21C60.3645 32.1598 61.678 28.9865 64.5253 26.6274C66.3291 25.135 68.4161 24.923 70.5581 25.9729C74.3178 27.8135 77.0602 33.5867 76.1216 37.6633C75.1122 42.0488 71.3578 44.6226 66.7539 44.0937C62.9863 43.6591 60.1207 40.093 60.084 35.21ZM61.8485 35.4666C61.935 39.3442 64.1058 41.9389 67.2756 42.3395C70.4192 42.7348 73.4474 40.7319 74.2732 37.7104C75.1751 34.4088 73.0515 29.3897 70.0469 27.714C68.5 26.8526 66.9558 26.9076 65.6265 28.0465C63.2406 30.0861 62.1342 32.7803 61.8485 35.4666Z" fill="black"/>
<path d="M72.5298 36.019C72.5009 37.7602 71.8638 39.2028 70.5477 40.2841C70.2409 40.5355 69.6405 40.4308 69.1738 40.491C69.2499 40.038 69.166 39.4123 69.4334 39.1609C70.7915 37.878 71.0694 36.3646 70.6604 34.6366C70.608 34.4193 70.4821 34.1679 70.545 33.9847C70.6525 33.6679 70.8649 33.1678 71.0642 33.1547C71.3814 33.1311 71.932 33.3694 72.0185 33.6234C72.2807 34.3879 72.3724 35.2152 72.5298 36.019Z" fill="black"/>
<path d="M101.228 50.8277C93.2494 51.7075 85.8297 43.8659 87.4709 34.7439C88.3571 29.819 90.0954 25.2921 92.8614 21.1291C95.3967 17.3143 98.0316 13.5729 100.866 9.98065C103.139 7.10059 106.073 5.25211 109.785 4.78869C116.484 3.95347 123.44 9.61148 124.037 16.3299C124.483 21.3464 123.172 26.0016 121.166 30.4998C118.61 36.2232 115.49 41.588 110.842 45.929C108.805 47.8299 106.503 49.2777 103.87 50.2046C102.987 50.4088 102.109 50.6183 101.228 50.8277ZM112.514 38.3754C116.812 32.7279 120.118 26.6038 121.492 19.5712C122.433 14.7642 120.238 10.4519 115.781 8.22119C111.434 6.04544 106.471 6.85186 103.417 10.5488C99.332 15.4894 95.5304 20.6578 92.5179 26.342C90.8059 29.5729 89.5972 33.0761 89.7598 36.7102C89.9984 42.0121 96.0888 48.7227 103.863 45.4158C107.507 44.0046 110.262 41.4963 112.514 38.3754Z" fill="black"/>
<path d="M95.8897 12.1014C95.0455 12.1093 94.4293 11.1693 94.9118 10.4336C97.0302 7.19483 99.4685 4.25455 102.942 2.34848C103.621 1.97669 104.227 2.05 104.62 2.74645C104.987 3.39839 104.73 3.96131 104.127 4.29645C101.102 5.97997 98.9729 8.5537 97.0485 11.3343C96.7575 11.7506 96.4114 12.0517 95.8897 12.1014Z" fill="black"/>
<path d="M93.3042 13.3477C93.8653 13.4446 94.353 13.6671 94.4159 14.3662C94.484 15.1203 93.4222 16.576 92.7405 16.6127C92.0195 16.6519 91.5843 16.2854 91.524 15.5575C91.4611 14.7825 92.5832 13.3818 93.3042 13.3477Z" fill="black"/>
<path d="M98.9177 19.7649C104.096 19.7414 111.253 24.771 112.9 29.5886C113.141 30.2955 113.249 31.0103 112.452 31.4056C111.72 31.7695 111.196 31.4082 110.902 30.6961C108.799 25.5748 104.544 23.3231 99.4788 22.1475C99.1406 22.069 98.7919 22.0192 98.4642 21.9145C97.8428 21.7155 97.5098 21.2757 97.6435 20.6237C97.7825 19.9665 98.2702 19.723 98.9177 19.7649Z" fill="black"/>
<path d="M105.777 10.8315C110.061 11.3761 113.826 12.9994 116.854 16.1544C117.035 16.3429 117.219 16.5314 117.384 16.733C117.879 17.3378 118.076 18.0186 117.434 18.5894C116.765 19.1863 116.139 18.8538 115.646 18.2385C114.277 16.5288 112.505 15.3715 110.544 14.4656C109.188 13.8373 107.762 13.4629 106.294 13.2194C105.992 13.1696 105.693 13.1146 105.392 13.0727C104.558 12.9549 103.918 12.6224 104.128 11.6458C104.319 10.7399 105.017 10.6875 105.777 10.8315Z" fill="black"/>
<path d="M93.5563 30.0912C98.9547 30.3923 102.297 33.3091 104.906 37.328C105.32 37.9669 105.294 38.6293 104.594 39.022C103.92 39.3991 103.336 39.1268 102.929 38.4775C101.949 36.9117 100.761 35.5372 99.2771 34.4218C97.628 33.1834 95.8085 32.4267 93.7268 32.4005C92.8852 32.3901 92.172 32.178 92.2454 31.1935C92.3162 30.2431 93.0975 30.1043 93.5563 30.0912Z" fill="black"/>
<path d="M57.1816 51.6367C57.0662 52.472 56.0463 52.9459 55.3882 52.3646C52.4859 49.804 49.9218 46.9711 48.5348 43.2636C48.2648 42.5384 48.4247 41.9519 49.1719 41.6639C49.8719 41.3942 50.3911 41.732 50.6375 42.3761C51.8698 45.6096 54.114 48.0838 56.589 50.3879C56.9587 50.7308 57.2078 51.1157 57.1816 51.6367Z" fill="black"/>
<path d="M58.0439 54.3702C58.2196 53.8282 58.5106 53.3805 59.2159 53.4171C59.971 53.4564 61.2609 54.7158 61.2006 55.3965C61.1351 56.1165 60.7103 56.4936 59.9788 56.4464C59.2002 56.3993 57.9732 55.0876 58.0439 54.3702Z" fill="black"/>
<path d="M0 97.5345L6.95043 90.2479C8.43175 91.5675 9.84491 92.5494 11.1925 93.1908C12.5401 93.8323 13.9271 94.1543 15.356 94.1543C17.4875 94.1543 18.5546 93.5574 18.5546 92.3582C18.5546 91.9891 18.4628 91.6539 18.2767 91.3554C18.0905 91.057 17.6107 90.7009 16.8373 90.2872C16.0612 89.8735 14.8552 89.4206 13.2166 88.9283C10.3981 88.0486 7.93361 86.6924 5.82829 84.8622C3.72297 83.0321 2.66901 80.4112 2.66901 76.997C2.66901 75.0255 3.0885 73.1954 3.92485 71.5066C4.76121 69.8178 6.12718 68.4459 8.02275 67.3881C9.9157 66.333 12.3723 65.8041 15.3848 65.8041C18.3107 65.8041 20.8906 66.2701 23.1296 67.2022C25.366 68.1343 27.4478 69.4827 29.3669 71.2395L23.2083 78.8141C22.3457 78.0234 21.2393 77.3191 19.8917 76.7012C18.5441 76.0859 17.1991 75.7769 15.862 75.7769C15.0518 75.7769 14.4908 75.9183 14.184 76.1985C13.8746 76.4812 13.7226 76.8844 13.7226 77.4133C13.7226 77.6778 13.8589 77.916 14.1316 78.1255C14.4042 78.3376 14.8106 78.5601 15.3481 78.7984C15.8856 79.0366 16.7534 79.3849 17.9516 79.8404L18.7171 80.1311C21.1842 81.0474 23.2188 82.0371 24.8233 83.1001C26.4279 84.1658 27.647 85.4356 28.4834 86.9149C29.3197 88.3942 29.7392 90.1537 29.7392 92.1933C29.7392 94.5863 29.1703 96.6993 28.035 98.5294C26.8998 100.36 25.2638 101.786 23.1323 102.805C21.0007 103.826 18.5074 104.337 15.6522 104.337C9.62205 104.345 4.40465 102.074 0 97.5345Z" fill="black"/>
<path d="M42.7934 101.745C39.8334 100.011 37.5026 97.6654 35.801 94.7095C34.0995 91.7535 33.25 88.5252 33.25 85.022C33.25 81.5031 34.0995 78.2774 35.801 75.3476C37.5026 72.4178 39.8334 70.098 42.7934 68.391C45.7534 66.6839 49.0412 65.8303 52.654 65.8303C56.2302 65.8303 59.4943 66.6839 62.4465 68.391C65.3987 70.098 67.7242 72.4178 69.4258 75.3476C71.1273 78.2774 71.9768 81.5031 71.9768 85.022C71.9768 88.5252 71.1273 91.7535 69.4258 94.7095C67.7242 97.6654 65.3987 100.011 62.4465 101.745C59.4943 103.478 56.2302 104.345 52.654 104.345C49.0412 104.345 45.7534 103.478 42.7934 101.745ZM56.6707 92.6253C57.9213 91.8503 58.9228 90.8004 59.67 89.4704C60.4198 88.1429 60.7948 86.6689 60.7948 85.0482C60.7948 83.4458 60.4146 81.9822 59.6595 80.6522C58.9018 79.3247 57.8977 78.2774 56.6471 77.5103C55.3965 76.7457 54.0646 76.3609 52.6567 76.3609C51.2278 76.3609 49.8854 76.7431 48.6243 77.5103C47.3632 78.2748 46.3512 79.3221 45.5856 80.6522C44.8201 81.9822 44.4347 83.4458 44.4347 85.0482C44.4347 86.6505 44.8174 88.1194 45.5856 89.4573C46.3512 90.7952 47.3658 91.8503 48.6243 92.6253C49.8854 93.4003 51.2278 93.7878 52.6567 93.7878C54.0803 93.7852 55.42 93.3977 56.6707 92.6253Z" fill="black"/>
<path d="M94.8653 103.658H83.8432V89.986L70.8652 66.5712H83.6046L89.446 79.7173L95.0488 66.5712H107.843L94.8653 89.9049V103.658Z" fill="black"/>
<path d="M136.628 103.658H111.385V66.5712H122.407V93.1253H136.628V103.658Z" fill="black"/>
<path d="M148.058 102.522C145.618 101.221 143.753 99.4301 142.469 97.1496C141.181 94.8717 140.539 92.2875 140.539 89.4022V66.5686H151.561V87.7658C151.561 89.719 152.023 91.2847 152.948 92.4629C153.874 93.6412 155.129 94.2329 156.716 94.2329C157.772 94.2329 158.698 93.9658 159.492 93.4265C160.284 92.8897 160.892 92.1331 161.317 91.1565C161.739 90.1799 161.951 89.0488 161.951 87.7658V66.5686H173V89.4022C173 92.2875 172.352 94.8717 171.057 97.1496C169.762 99.4301 167.89 101.218 165.441 102.522C162.992 103.823 160.085 104.475 156.718 104.475C153.383 104.475 150.499 103.826 148.058 102.522Z" fill="black"/>
<path d="M37.3896 124.905C38.0897 124.646 38.7399 124.298 39.335 123.861V119.748C39.335 119.648 39.3586 119.572 39.4032 119.517C39.4478 119.462 39.5185 119.433 39.6103 119.433C39.786 119.433 39.8751 119.538 39.8751 119.748V123.911C39.8751 124.041 39.8332 124.146 39.7466 124.225C39.1436 124.722 38.4462 125.115 37.6518 125.403C36.8574 125.691 36.0499 125.835 35.224 125.835C33.9184 125.835 32.7123 125.516 31.6059 124.877C30.4969 124.238 29.6212 123.374 28.9762 122.279C28.3313 121.188 28.0088 119.988 28.0088 118.685C28.0088 117.375 28.3313 116.174 28.9762 115.077C29.6212 113.98 30.4995 113.113 31.6059 112.474C32.7123 111.835 33.9184 111.516 35.224 111.516C36.063 111.516 36.86 111.657 37.6177 111.943C38.3754 112.228 39.0676 112.629 39.6968 113.144C39.7965 113.236 39.8437 113.32 39.8437 113.398C39.8437 113.464 39.8279 113.514 39.7938 113.545L39.7833 113.555C39.723 113.616 39.6549 113.644 39.5762 113.644C39.5028 113.644 39.432 113.618 39.3612 113.566C38.0765 112.584 36.6975 112.094 35.2214 112.094C34.0075 112.094 32.8932 112.385 31.8733 112.969C30.8535 113.553 30.0486 114.346 29.4534 115.354C28.8609 116.362 28.5646 117.472 28.5646 118.682C28.5646 119.886 28.8609 120.994 29.4534 122.004C30.0459 123.015 30.8535 123.816 31.8733 124.405C32.8932 124.994 34.0075 125.29 35.2214 125.29C35.9686 125.293 36.6896 125.165 37.3896 124.905Z" fill="black"/>
<path d="M42.6537 110.228C42.6957 110.165 42.7639 110.133 42.8556 110.133H42.8661C42.9579 110.133 43.026 110.165 43.068 110.228C43.1099 110.291 43.1309 110.369 43.1309 110.469V125.353C43.1309 125.453 43.1099 125.529 43.068 125.589C43.026 125.649 42.9579 125.678 42.8661 125.678H42.8556C42.7639 125.678 42.6957 125.649 42.6537 125.589C42.6118 125.531 42.5908 125.453 42.5908 125.353V110.469C42.5908 110.369 42.6118 110.288 42.6537 110.228Z" fill="black"/>
<path d="M56.6308 113.639H56.6412C56.8117 113.639 56.8982 113.741 56.8982 113.943V125.361C56.8982 125.571 56.8117 125.675 56.6412 125.675H56.6308C56.4603 125.675 56.3764 125.571 56.3764 125.361L56.3555 123.397C56.054 123.921 55.6581 124.382 55.1652 124.777C54.6723 125.173 54.14 125.476 53.5632 125.686C52.9864 125.895 52.4254 126 51.8827 126C50.8602 126 49.9478 125.749 49.1507 125.248C48.3511 124.748 47.7323 124.086 47.2919 123.264C46.8514 122.442 46.6338 121.57 46.6338 120.648V113.943C46.6338 113.741 46.7177 113.639 46.8907 113.639H46.9012C47.0847 113.639 47.1765 113.741 47.1765 113.943V120.648C47.1765 121.578 47.3889 122.41 47.8162 123.143C48.241 123.877 48.8151 124.445 49.5309 124.85C50.2493 125.256 51.0227 125.461 51.8564 125.461C52.5512 125.461 53.2486 125.285 53.946 124.932C54.6434 124.578 55.2202 124.078 55.6764 123.434C56.1326 122.79 56.3607 122.052 56.3607 121.219V113.943C56.3555 113.741 56.4472 113.639 56.6308 113.639Z" fill="black"/>
<path d="M62.8914 114.707C63.0539 114.707 63.1378 114.789 63.1378 114.953V114.964C63.1378 115.022 63.1142 115.077 63.0697 115.126C63.0251 115.176 62.9648 115.2 62.894 115.2H60.6025V123.643C60.6025 124.044 60.71 124.395 60.9224 124.699C61.1348 125.002 61.4809 125.154 61.9606 125.154H62.3434C62.5846 125.154 62.7079 125.23 62.7079 125.379V125.4C62.7079 125.445 62.6895 125.502 62.6528 125.573C62.6161 125.641 62.5322 125.675 62.4011 125.675C62.0209 125.675 61.7509 125.662 61.5936 125.636C61.0954 125.557 60.7153 125.337 60.4531 124.979C60.1909 124.617 60.0598 124.185 60.0598 123.683V115.2H58.4579C58.2744 115.2 58.1826 115.118 58.1826 114.953C58.1826 114.791 58.2744 114.707 58.4579 114.707H60.0598V111.537C60.0598 111.335 60.1437 111.233 60.3142 111.233H60.3246C60.5082 111.233 60.5999 111.335 60.5999 111.537V114.707H62.8914Z" fill="black"/>
<path d="M65.0547 119.766C65.0547 120.774 65.3091 121.711 65.8177 122.578C66.3263 123.445 67.0132 124.136 67.8784 124.649C68.7436 125.162 69.6849 125.419 70.6995 125.419C71.3209 125.419 71.8715 125.345 72.3512 125.201C72.8284 125.057 73.2269 124.887 73.5468 124.691C73.864 124.494 74.2101 124.248 74.585 123.955C74.6558 123.897 74.7345 123.866 74.821 123.866C74.8813 123.866 74.9285 123.887 74.9678 123.926L74.9862 123.947C75.0255 123.987 75.0465 124.036 75.0465 124.094C75.0465 124.185 75.0071 124.267 74.9285 124.34C74.3517 124.832 73.7172 125.22 73.025 125.508C72.3329 125.796 71.5595 125.94 70.6995 125.94C69.5852 125.94 68.5549 125.662 67.6084 125.104C66.6619 124.549 65.9094 123.798 65.351 122.85C64.7952 121.905 64.5146 120.876 64.5146 119.763C64.5146 118.651 64.7926 117.614 65.351 116.655C65.9094 115.697 66.6593 114.933 67.6031 114.367C68.547 113.802 69.5721 113.519 70.6811 113.519C71.8269 113.519 72.8809 113.812 73.8378 114.399C74.7948 114.985 75.5472 115.731 76.0978 116.642C76.6484 117.554 76.9237 118.465 76.9237 119.381V119.42C76.9237 119.596 76.8319 119.685 76.6484 119.685H65.0574V119.766H65.0547ZM68.0436 114.749C67.223 115.208 66.5518 115.825 66.0274 116.606C65.5031 117.386 65.1885 118.237 65.0836 119.158H76.381C76.3285 118.386 76.0506 117.603 75.5446 116.813C75.0386 116.022 74.3622 115.365 73.5101 114.844C72.658 114.323 71.7141 114.063 70.6785 114.063C69.7425 114.061 68.8642 114.291 68.0436 114.749Z" fill="black"/>
<path d="M79.8914 125.675H79.881C79.7105 125.675 79.624 125.573 79.624 125.371V113.953C79.624 113.744 79.7079 113.639 79.881 113.639H79.8914C80.0619 113.639 80.1484 113.744 80.1484 113.953L80.1667 116.202C80.4604 115.639 80.8537 115.152 81.3413 114.739C81.829 114.328 82.3586 114.014 82.9249 113.796C83.4912 113.579 84.0444 113.472 84.5819 113.472C85.5913 113.472 86.4748 113.712 87.2351 114.197C87.9955 114.681 88.5775 115.312 88.9839 116.092C89.3903 116.87 89.5948 117.69 89.5948 118.548V125.371C89.5948 125.573 89.5083 125.675 89.3378 125.675H89.3273C89.1438 125.675 89.0521 125.573 89.0521 125.371V118.548C89.0521 117.807 88.8659 117.087 88.4962 116.388C88.1266 115.689 87.5996 115.116 86.9179 114.676C86.2362 114.233 85.4497 114.014 84.5583 114.014C83.929 114.014 83.271 114.189 82.5867 114.542C81.9024 114.896 81.3256 115.406 80.8615 116.074C80.3948 116.742 80.1641 117.525 80.1641 118.42V125.371C80.1667 125.573 80.075 125.675 79.8914 125.675Z" fill="black"/>
<path d="M98.4823 111.665H107.674C107.837 111.665 107.921 111.754 107.921 111.929V111.94C107.921 112.123 107.84 112.215 107.674 112.215H98.7471V118.645H105.983C106.154 118.645 106.238 118.734 106.238 118.91V118.92C106.238 119.103 106.151 119.195 105.983 119.195H98.7471V125.4C98.7471 125.584 98.6606 125.675 98.4901 125.675H98.4796C98.304 125.675 98.2148 125.584 98.2148 125.4V111.929C98.2175 111.754 98.3066 111.665 98.4823 111.665Z" fill="black"/>
<path d="M110.085 113.639H110.096C110.266 113.639 110.353 113.741 110.353 113.943V116.446C110.589 115.865 110.948 115.372 111.433 114.975C111.918 114.577 112.45 114.278 113.027 114.087C113.604 113.893 114.159 113.796 114.7 113.796C115.15 113.796 115.63 113.885 116.134 114.066C116.637 114.247 117.067 114.456 117.416 114.7C117.767 114.94 117.943 115.142 117.943 115.299C117.943 115.352 117.93 115.391 117.903 115.417L117.893 115.427C117.833 115.501 117.762 115.535 117.675 115.535C117.602 115.535 117.534 115.506 117.468 115.446C116.577 114.707 115.662 114.336 114.726 114.336C114.049 114.336 113.378 114.495 112.71 114.812C112.041 115.129 111.483 115.64 111.034 116.344C110.586 117.048 110.36 117.938 110.36 119.02V125.361C110.36 125.571 110.271 125.675 110.096 125.675H110.085C109.909 125.675 109.82 125.571 109.82 125.361V113.943C109.82 113.741 109.909 113.639 110.085 113.639Z" fill="black"/>
<path d="M118.844 119.766C118.844 120.774 119.098 121.711 119.607 122.578C120.115 123.445 120.802 124.136 121.667 124.649C122.533 125.162 123.474 125.419 124.489 125.419C125.11 125.419 125.661 125.345 126.14 125.201C126.617 125.057 127.016 124.887 127.336 124.691C127.653 124.494 127.999 124.248 128.374 123.955C128.445 123.897 128.524 123.866 128.61 123.866C128.67 123.866 128.718 123.887 128.757 123.926L128.775 123.947C128.815 123.987 128.836 124.036 128.836 124.094C128.836 124.185 128.796 124.267 128.718 124.34C128.141 124.832 127.506 125.22 126.814 125.508C126.122 125.796 125.349 125.94 124.489 125.94C123.374 125.94 122.344 125.662 121.397 125.104C120.451 124.549 119.699 123.798 119.14 122.85C118.584 121.905 118.304 120.876 118.304 119.763C118.304 118.651 118.582 117.614 119.14 116.655C119.699 115.697 120.448 114.933 121.392 114.367C122.336 113.802 123.361 113.519 124.47 113.519C125.616 113.519 126.67 113.812 127.627 114.399C128.584 114.985 129.336 115.731 129.887 116.642C130.437 117.554 130.713 118.465 130.713 119.381V119.42C130.713 119.596 130.621 119.685 130.437 119.685H118.846V119.766H118.844ZM121.833 114.749C121.012 115.208 120.341 115.825 119.816 116.606C119.292 117.386 118.978 118.237 118.873 119.158H130.17C130.118 118.386 129.84 117.603 129.334 116.813C128.828 116.022 128.151 115.365 127.299 114.844C126.447 114.323 125.503 114.063 124.468 114.063C123.532 114.061 122.653 114.291 121.833 114.749Z" fill="black"/>
<path d="M133.119 119.766C133.119 120.774 133.374 121.711 133.882 122.578C134.391 123.445 135.078 124.136 135.943 124.649C136.808 125.162 137.749 125.419 138.764 125.419C139.385 125.419 139.936 125.345 140.416 125.201C140.893 125.057 141.291 124.887 141.611 124.691C141.928 124.494 142.275 124.248 142.649 123.955C142.72 123.897 142.799 123.866 142.885 123.866C142.946 123.866 142.993 123.887 143.032 123.926L143.051 123.947C143.09 123.987 143.111 124.036 143.111 124.094C143.111 124.185 143.072 124.267 142.993 124.34C142.416 124.832 141.782 125.22 141.09 125.508C140.397 125.796 139.624 125.94 138.764 125.94C137.65 125.94 136.619 125.662 135.673 125.104C134.726 124.549 133.974 123.798 133.415 122.85C132.86 121.905 132.579 120.876 132.579 119.763C132.579 118.651 132.857 117.614 133.415 116.655C133.974 115.697 134.724 114.933 135.668 114.367C136.611 113.802 137.637 113.519 138.746 113.519C139.891 113.519 140.945 113.812 141.902 114.399C142.859 114.985 143.612 115.731 144.162 116.642C144.713 117.554 144.988 118.465 144.988 119.381V119.42C144.988 119.596 144.896 119.685 144.713 119.685H133.122V119.766H133.119ZM136.108 114.749C135.287 115.208 134.616 115.825 134.092 116.606C133.568 117.386 133.253 118.237 133.148 119.158H144.445C144.393 118.386 144.115 117.603 143.609 116.813C143.103 116.022 142.427 115.365 141.575 114.844C140.722 114.323 139.779 114.063 138.743 114.063C137.807 114.061 136.929 114.291 136.108 114.749Z" fill="black"/>
</svg>
